<svg width="57" height="57" viewBox="0 0 57 57" fill="none" xmlns="http://www.w3.org/2000/svg">
<path fill-rule="evenodd" clip-rule="evenodd" d="M15.3039 19.2842C15.6771 18.8771 16.3096 18.8496 16.7167 19.2228L28.041 29.6034L39.3653 19.2228C39.7724 18.8496 40.405 18.8771 40.7782 19.2842C41.1514 19.6914 41.1239 20.3239 40.7167 20.6971L28.7167 31.6971C28.3344 32.0476 27.7476 32.0476 27.3653 31.6971L15.3653 20.6971C14.9582 20.3239 14.9307 19.6914 15.3039 19.2842Z" fill="#335E3C"/>
<path fill-rule="evenodd" clip-rule="evenodd" d="M15.041 19.96C15.041 19.4077 15.4887 18.96 16.041 18.96H40.041C40.5933 18.96 41.041 19.4077 41.041 19.96V36.96C41.041 37.4904 40.8303 37.9991 40.4552 38.3742C40.0802 38.7493 39.5714 38.96 39.041 38.96H17.041C16.5106 38.96 16.0019 38.7492 15.6268 38.3742C15.2517 37.9991 15.041 37.4904 15.041 36.96V19.96ZM17.041 20.96V36.96H39.041V20.96H17.041Z" fill="#335E3C"/>
<path fill-rule="evenodd" clip-rule="evenodd" d="M26.5905 28.2841C26.9638 28.6911 26.9365 29.3237 26.5294 29.697L17.0294 38.4095C16.6224 38.7827 15.9898 38.7554 15.6165 38.3484C15.2432 37.9413 15.2706 37.3088 15.6776 36.9355L25.1776 28.223C25.5847 27.8497 26.2172 27.877 26.5905 28.2841Z" fill="#335E3C"/>
<path fill-rule="evenodd" clip-rule="evenodd" d="M29.4915 28.2841C29.8648 27.877 30.4974 27.8497 30.9044 28.223L40.4044 36.9355C40.8115 37.3088 40.8388 37.9413 40.4655 38.3484C40.0922 38.7554 39.4597 38.7827 39.0526 38.4095L29.5526 29.697C29.1456 29.3237 29.1182 28.6911 29.4915 28.2841Z" fill="#335E3C"/>
<rect x="1.04102" y="1.95996" width="54" height="54" rx="27" stroke="#335E3C" stroke-width="2"/>
</svg>
