<svg width="57" height="57" viewBox="0 0 57 57" fill="none" xmlns="http://www.w3.org/2000/svg">
<path fill-rule="evenodd" clip-rule="evenodd" d="M28.041 24.96C25.8319 24.96 24.041 26.7508 24.041 28.96C24.041 31.1691 25.8319 32.96 28.041 32.96C30.2502 32.96 32.041 31.1691 32.041 28.96C32.041 26.7508 30.2502 24.96 28.041 24.96ZM22.041 28.96C22.041 25.6463 24.7273 22.96 28.041 22.96C31.3547 22.96 34.041 25.6463 34.041 28.96C34.041 32.2737 31.3547 34.96 28.041 34.96C24.7273 34.96 22.041 32.2737 22.041 28.96Z" fill="#335E3C"/>
<path fill-rule="evenodd" clip-rule="evenodd" d="M22.541 18.46C19.7796 18.46 17.541 20.6985 17.541 23.46V34.46C17.541 37.2214 19.7796 39.46 22.541 39.46H33.541C36.3024 39.46 38.541 37.2214 38.541 34.46V23.46C38.541 20.6985 36.3024 18.46 33.541 18.46H22.541ZM15.541 23.46C15.541 19.594 18.675 16.46 22.541 16.46H33.541C37.407 16.46 40.541 19.594 40.541 23.46V34.46C40.541 38.326 37.407 41.46 33.541 41.46H22.541C18.675 41.46 15.541 38.326 15.541 34.46V23.46Z" fill="#335E3C"/>
<path d="M34.541 23.96C35.3694 23.96 36.041 23.2884 36.041 22.46C36.041 21.6315 35.3694 20.96 34.541 20.96C33.7126 20.96 33.041 21.6315 33.041 22.46C33.041 23.2884 33.7126 23.96 34.541 23.96Z" fill="#335E3C"/>
<rect x="1.04102" y="1.95996" width="54" height="54" rx="27" stroke="#335E3C" stroke-width="2"/>
</svg>
