<svg width="691" height="107" viewBox="0 0 691 107" fill="none" xmlns="http://www.w3.org/2000/svg">
<path d="M3.9 45.12C2.94 45.12 2.04 44.92 1.2 44.52C0.4 44.08 0 43.44 0 42.6V3.72C0 2.84 0.4 2.22 1.2 1.86C2.04 1.46 2.94 1.26 3.9 1.26C4.9 1.26 5.8 1.46 6.6 1.86C7.4 2.22 7.8 2.84 7.8 3.72V19.32H21.3V3.72C21.3 2.84 21.7 2.22 22.5 1.86C23.34 1.46 24.24 1.26 25.2 1.26C26.2 1.26 27.1 1.46 27.9 1.86C28.7 2.22 29.1 2.84 29.1 3.72V42.6C29.1 43.44 28.7 44.08 27.9 44.52C27.1 44.92 26.2 45.12 25.2 45.12C24.24 45.12 23.34 44.92 22.5 44.52C21.7 44.08 21.3 43.44 21.3 42.6V25.44H7.8V42.6C7.8 43.44 7.4 44.08 6.6 44.52C5.8 44.92 4.9 45.12 3.9 45.12Z" fill="#335E3C"/>
<path d="M41.9067 45.66C39.7867 45.66 37.9467 45.02 36.3867 43.74C34.8667 42.42 34.1067 40.4 34.1067 37.68C34.1067 35.4 34.6867 33.62 35.8467 32.34C37.0467 31.06 38.6867 30.16 40.7667 29.64C42.8867 29.12 45.3267 28.86 48.0867 28.86H50.5467V28.08C50.5467 27.2 50.3667 26.34 50.0067 25.5C49.6867 24.66 49.1467 23.96 48.3867 23.4C47.6667 22.84 46.6267 22.56 45.2667 22.56C43.7467 22.56 42.5667 22.72 41.7267 23.04C40.9267 23.32 40.3067 23.62 39.8667 23.94C39.4267 24.26 38.9467 24.42 38.4267 24.42C37.5867 24.42 36.9267 24 36.4467 23.16C36.0067 22.32 35.7867 21.46 35.7867 20.58C35.7867 19.74 36.2867 19 37.2867 18.36C38.3267 17.68 39.5867 17.16 41.0667 16.8C42.5467 16.44 43.9867 16.26 45.3867 16.26C48.5067 16.26 51.0067 16.82 52.8867 17.94C54.7667 19.06 56.1267 20.5 56.9667 22.26C57.8467 24.02 58.2867 25.92 58.2867 27.96V42.6C58.2867 43.32 57.9267 43.92 57.2067 44.4C56.4867 44.88 55.5867 45.12 54.5067 45.12C53.5067 45.12 52.6667 44.88 51.9867 44.4C51.3467 43.92 51.0267 43.32 51.0267 42.6V40.92C49.9467 42.16 48.6667 43.26 47.1867 44.22C45.7467 45.18 43.9867 45.66 41.9067 45.66ZM45.0267 39.9C45.8667 39.9 46.7067 39.62 47.5467 39.06C48.3867 38.5 49.0867 37.78 49.6467 36.9C50.2467 36.02 50.5467 35.1 50.5467 34.14V32.88H49.6467C48.3267 32.88 47.0667 32.96 45.8667 33.12C44.6667 33.28 43.6867 33.64 42.9267 34.2C42.2067 34.72 41.8467 35.54 41.8467 36.66C41.8467 37.78 42.1467 38.6 42.7467 39.12C43.3867 39.64 44.1467 39.9 45.0267 39.9Z" fill="#335E3C"/>
<path d="M67.8689 45.12C66.7489 45.12 65.8289 44.86 65.1089 44.34C64.3889 43.82 64.0289 43.24 64.0289 42.6V19.02C64.0289 18.3 64.3889 17.72 65.1089 17.28C65.8289 16.84 66.7489 16.62 67.8689 16.62C68.8289 16.62 69.6289 16.84 70.2689 17.28C70.9489 17.72 71.2889 18.3 71.2889 19.02V20.82C71.8889 19.66 72.8689 18.62 74.2289 17.7C75.6289 16.74 77.3289 16.26 79.3289 16.26C81.2089 16.26 82.9289 16.82 84.4889 17.94C86.0489 19.02 87.2889 20.48 88.2089 22.32C89.1689 24.16 89.6489 26.2 89.6489 28.44V42.6C89.6489 43.44 89.2489 44.08 88.4489 44.52C87.6489 44.92 86.7489 45.12 85.7489 45.12C84.8689 45.12 84.0089 44.92 83.1689 44.52C82.3289 44.08 81.9089 43.44 81.9089 42.6V28.44C81.9089 27.52 81.6689 26.66 81.1889 25.86C80.7489 25.06 80.1289 24.4 79.3289 23.88C78.5289 23.32 77.6489 23.04 76.6889 23.04C75.8889 23.04 75.1089 23.26 74.3489 23.7C73.5889 24.14 72.9689 24.76 72.4889 25.56C72.0089 26.36 71.7689 27.32 71.7689 28.44V42.6C71.7689 43.24 71.3889 43.82 70.6289 44.34C69.8689 44.86 68.9489 45.12 67.8689 45.12Z" fill="#335E3C"/>
<path d="M104.915 45.66C103.035 45.66 101.295 45.08 99.6952 43.92C98.0952 42.76 96.8152 41.24 95.8552 39.36C94.8952 37.48 94.4152 35.48 94.4152 33.36V28.44C94.4152 26.2 94.8952 24.16 95.8552 22.32C96.8152 20.48 98.0952 19.02 99.6952 17.94C101.295 16.82 103.075 16.26 105.035 16.26C106.915 16.26 108.515 16.74 109.835 17.7C111.155 18.62 112.135 19.66 112.775 20.82V2.4C112.775 1.68 113.155 1.1 113.915 0.66C114.675 0.220001 115.615 0 116.735 0C117.815 0 118.715 0.220001 119.435 0.66C120.155 1.1 120.515 1.68 120.515 2.4V42.6C120.515 43.24 120.155 43.82 119.435 44.34C118.715 44.86 117.815 45.12 116.735 45.12C115.775 45.12 114.955 44.86 114.275 44.34C113.595 43.82 113.255 43.24 113.255 42.6V40.92C112.655 42.16 111.575 43.26 110.015 44.22C108.495 45.18 106.795 45.66 104.915 45.66ZM107.375 38.88C108.415 38.88 109.335 38.6 110.135 38.04C110.935 37.44 111.575 36.8 112.055 36.12C112.535 35.4 112.775 34.84 112.775 34.44V28.44C112.775 27.32 112.495 26.36 111.935 25.56C111.415 24.76 110.735 24.14 109.895 23.7C109.095 23.26 108.275 23.04 107.435 23.04C106.475 23.04 105.575 23.32 104.735 23.88C103.935 24.4 103.295 25.06 102.815 25.86C102.375 26.66 102.155 27.52 102.155 28.44V33.36C102.155 34.28 102.375 35.16 102.815 36C103.295 36.84 103.935 37.54 104.735 38.1C105.535 38.62 106.415 38.88 107.375 38.88Z" fill="#335E3C"/>
<path d="M138.608 45.66C135.568 45.66 133.088 45.12 131.168 44.04C129.248 42.96 127.828 41.5 126.908 39.66C125.988 37.78 125.528 35.68 125.528 33.36V28.56C125.528 26.24 125.968 24.16 126.848 22.32C127.768 20.44 129.188 18.96 131.108 17.88C133.068 16.8 135.528 16.26 138.488 16.26C140.368 16.26 142.028 16.48 143.468 16.92C144.908 17.36 146.048 17.94 146.888 18.66C147.728 19.38 148.148 20.14 148.148 20.94C148.148 21.42 148.008 21.96 147.728 22.56C147.488 23.12 147.128 23.62 146.648 24.06C146.208 24.5 145.688 24.72 145.088 24.72C144.648 24.72 144.188 24.58 143.708 24.3C143.268 24.02 142.688 23.74 141.968 23.46C141.248 23.18 140.288 23.04 139.088 23.04C137.048 23.04 135.568 23.54 134.648 24.54C133.728 25.5 133.268 26.84 133.268 28.56V33.36C133.268 35.08 133.728 36.44 134.648 37.44C135.568 38.4 137.068 38.88 139.148 38.88C140.388 38.88 141.348 38.72 142.028 38.4C142.708 38.08 143.268 37.78 143.708 37.5C144.188 37.22 144.668 37.08 145.148 37.08C145.868 37.08 146.468 37.28 146.948 37.68C147.468 38.08 147.848 38.58 148.088 39.18C148.368 39.74 148.508 40.26 148.508 40.74C148.508 41.54 148.068 42.32 147.188 43.08C146.348 43.84 145.168 44.46 143.648 44.94C142.168 45.42 140.488 45.66 138.608 45.66Z" fill="#335E3C"/>
<path d="M156.285 45.12C155.205 45.12 154.305 44.86 153.585 44.34C152.865 43.82 152.505 43.24 152.505 42.6V19.02C152.505 18.3 152.865 17.72 153.585 17.28C154.305 16.84 155.205 16.62 156.285 16.62C157.285 16.62 158.105 16.84 158.745 17.28C159.425 17.72 159.765 18.3 159.765 19.02V21.48C160.205 20.6 160.785 19.78 161.505 19.02C162.265 18.22 163.125 17.56 164.085 17.04C165.045 16.52 166.065 16.26 167.145 16.26H169.005C169.765 16.26 170.425 16.6 170.985 17.28C171.545 17.92 171.825 18.7 171.825 19.62C171.825 20.58 171.545 21.4 170.985 22.08C170.425 22.72 169.765 23.04 169.005 23.04H167.145C166.025 23.04 164.925 23.42 163.845 24.18C162.805 24.9 161.945 25.92 161.265 27.24C160.585 28.52 160.245 30.08 160.245 31.92V42.6C160.245 43.24 159.865 43.82 159.105 44.34C158.345 44.86 157.405 45.12 156.285 45.12Z" fill="#335E3C"/>
<path d="M180.715 45.66C178.595 45.66 176.755 45.02 175.195 43.74C173.675 42.42 172.915 40.4 172.915 37.68C172.915 35.4 173.495 33.62 174.655 32.34C175.855 31.06 177.495 30.16 179.575 29.64C181.695 29.12 184.135 28.86 186.895 28.86H189.355V28.08C189.355 27.2 189.175 26.34 188.815 25.5C188.495 24.66 187.955 23.96 187.195 23.4C186.475 22.84 185.435 22.56 184.075 22.56C182.555 22.56 181.375 22.72 180.535 23.04C179.735 23.32 179.115 23.62 178.675 23.94C178.235 24.26 177.755 24.42 177.235 24.42C176.395 24.42 175.735 24 175.255 23.16C174.815 22.32 174.595 21.46 174.595 20.58C174.595 19.74 175.095 19 176.095 18.36C177.135 17.68 178.395 17.16 179.875 16.8C181.355 16.44 182.795 16.26 184.195 16.26C187.315 16.26 189.815 16.82 191.695 17.94C193.575 19.06 194.935 20.5 195.775 22.26C196.655 24.02 197.095 25.92 197.095 27.96V42.6C197.095 43.32 196.735 43.92 196.015 44.4C195.295 44.88 194.395 45.12 193.315 45.12C192.315 45.12 191.475 44.88 190.795 44.4C190.155 43.92 189.835 43.32 189.835 42.6V40.92C188.755 42.16 187.475 43.26 185.995 44.22C184.555 45.18 182.795 45.66 180.715 45.66ZM183.835 39.9C184.675 39.9 185.515 39.62 186.355 39.06C187.195 38.5 187.895 37.78 188.455 36.9C189.055 36.02 189.355 35.1 189.355 34.14V32.88H188.455C187.135 32.88 185.875 32.96 184.675 33.12C183.475 33.28 182.495 33.64 181.735 34.2C181.015 34.72 180.655 35.54 180.655 36.66C180.655 37.78 180.955 38.6 181.555 39.12C182.195 39.64 182.955 39.9 183.835 39.9Z" fill="#335E3C"/>
<path d="M206.677 45.12C205.597 45.12 204.697 44.9 203.977 44.46C203.257 43.98 202.897 43.38 202.897 42.66V11.76C202.897 9.52 203.377 7.52 204.337 5.76C205.297 3.96 206.577 2.56 208.177 1.56C209.777 0.52 211.537 0 213.457 0H216.997C217.957 0 218.678 0.340002 219.158 1.02C219.678 1.7 219.938 2.44 219.938 3.24C219.938 4.12 219.678 4.9 219.158 5.58C218.678 6.22 217.957 6.54 216.997 6.54H215.077C214.237 6.54 213.478 6.72 212.798 7.08C212.118 7.44 211.577 7.94 211.177 8.58C210.817 9.22 210.637 10 210.637 10.92V16.62H217.957C218.597 16.62 219.077 16.92 219.397 17.52C219.757 18.08 219.938 18.72 219.938 19.44C219.938 20.16 219.757 20.82 219.397 21.42C219.077 21.98 218.597 22.26 217.957 22.26H210.637V42.66C210.637 43.38 210.237 43.98 209.438 44.46C208.677 44.9 207.757 45.12 206.677 45.12Z" fill="#335E3C"/>
<path d="M234.208 45.12C230.608 45.12 227.848 44.34 225.928 42.78C224.048 41.22 223.108 38.74 223.108 35.34V6.3C223.108 5.58 223.528 5 224.368 4.56C225.208 4.12 226.068 3.9 226.948 3.9C227.908 3.9 228.788 4.12 229.588 4.56C230.428 5 230.848 5.58 230.848 6.3V16.62H237.928C238.568 16.62 239.048 16.92 239.368 17.52C239.728 18.08 239.908 18.72 239.908 19.44C239.908 20.16 239.728 20.82 239.368 21.42C239.048 21.98 238.568 22.26 237.928 22.26H230.848V35.34C230.848 36.54 231.088 37.38 231.568 37.86C232.088 38.34 232.968 38.58 234.208 38.58H236.548C237.668 38.58 238.488 38.92 239.008 39.6C239.568 40.28 239.848 41.02 239.848 41.82C239.848 42.66 239.568 43.42 239.008 44.1C238.488 44.78 237.668 45.12 236.548 45.12H234.208Z" fill="#335E3C"/>
<path d="M256.942 45.66C254.102 45.66 251.582 45.16 249.382 44.16C247.222 43.12 245.522 41.68 244.282 39.84C243.042 37.96 242.422 35.8 242.422 33.36V28.26C242.422 26.1 243.002 24.12 244.162 22.32C245.362 20.48 246.942 19.02 248.902 17.94C250.902 16.82 253.122 16.26 255.562 16.26C257.802 16.26 259.842 16.74 261.682 17.7C263.562 18.66 265.082 19.98 266.242 21.66C267.402 23.34 267.982 25.3 267.982 27.54C267.982 29.26 267.702 30.5 267.142 31.26C266.582 31.98 265.862 32.44 264.982 32.64C264.142 32.8 263.262 32.88 262.342 32.88H250.162V33.78C250.162 35.5 250.802 36.9 252.082 37.98C253.402 39.02 255.102 39.54 257.182 39.54C258.502 39.54 259.602 39.34 260.482 38.94C261.362 38.54 262.122 38.16 262.762 37.8C263.402 37.44 264.002 37.26 264.562 37.26C265.162 37.26 265.682 37.46 266.122 37.86C266.562 38.26 266.902 38.74 267.142 39.3C267.382 39.82 267.502 40.28 267.502 40.68C267.502 41.36 267.062 42.1 266.182 42.9C265.342 43.66 264.122 44.32 262.522 44.88C260.962 45.4 259.102 45.66 256.942 45.66ZM250.162 28.32H258.922C259.602 28.32 260.062 28.22 260.302 28.02C260.582 27.78 260.722 27.34 260.722 26.7C260.722 25.78 260.462 24.96 259.942 24.24C259.462 23.52 258.822 22.96 258.022 22.56C257.262 22.16 256.402 21.96 255.442 21.96C254.522 21.96 253.662 22.16 252.862 22.56C252.062 22.92 251.402 23.46 250.882 24.18C250.402 24.86 250.162 25.68 250.162 26.64V28.32Z" fill="#335E3C"/>
<path d="M282.103 45.66C280.223 45.66 278.483 45.08 276.883 43.92C275.283 42.76 274.003 41.24 273.043 39.36C272.083 37.48 271.603 35.48 271.603 33.36V28.44C271.603 26.2 272.083 24.16 273.043 22.32C274.003 20.48 275.283 19.02 276.883 17.94C278.483 16.82 280.263 16.26 282.223 16.26C284.103 16.26 285.703 16.74 287.023 17.7C288.343 18.62 289.323 19.66 289.963 20.82V2.4C289.963 1.68 290.343 1.1 291.103 0.66C291.863 0.220001 292.803 0 293.923 0C295.003 0 295.903 0.220001 296.623 0.66C297.343 1.1 297.703 1.68 297.703 2.4V42.6C297.703 43.24 297.343 43.82 296.623 44.34C295.903 44.86 295.003 45.12 293.923 45.12C292.963 45.12 292.143 44.86 291.463 44.34C290.783 43.82 290.443 43.24 290.443 42.6V40.92C289.843 42.16 288.763 43.26 287.203 44.22C285.683 45.18 283.983 45.66 282.103 45.66ZM284.563 38.88C285.603 38.88 286.523 38.6 287.323 38.04C288.123 37.44 288.763 36.8 289.243 36.12C289.723 35.4 289.963 34.84 289.963 34.44V28.44C289.963 27.32 289.683 26.36 289.123 25.56C288.603 24.76 287.923 24.14 287.083 23.7C286.283 23.26 285.463 23.04 284.623 23.04C283.663 23.04 282.763 23.32 281.923 23.88C281.123 24.4 280.483 25.06 280.003 25.86C279.563 26.66 279.343 27.52 279.343 28.44V33.36C279.343 34.28 279.563 35.16 280.003 36C280.483 36.84 281.123 37.54 281.923 38.1C282.723 38.62 283.603 38.88 284.563 38.88Z" fill="#335E3C"/>
<path d="M319.588 10.26C318.428 10.26 317.428 9.88 316.588 9.12C315.748 8.32 315.328 7.44 315.328 6.48C315.328 5.44 315.748 4.56 316.588 3.84C317.428 3.08 318.428 2.7 319.588 2.7C320.788 2.7 321.788 3.08 322.588 3.84C323.388 4.56 323.788 5.44 323.788 6.48C323.788 7.44 323.388 8.32 322.588 9.12C321.788 9.88 320.788 10.26 319.588 10.26ZM319.588 45.12C318.468 45.12 317.548 44.86 316.828 44.34C316.108 43.82 315.748 43.24 315.748 42.6V19.02C315.748 18.3 316.108 17.72 316.828 17.28C317.548 16.84 318.468 16.62 319.588 16.62C320.668 16.62 321.588 16.84 322.348 17.28C323.108 17.72 323.488 18.3 323.488 19.02V42.6C323.488 43.24 323.108 43.82 322.348 44.34C321.588 44.86 320.668 45.12 319.588 45.12Z" fill="#335E3C"/>
<path d="M333.24 45.12C332.12 45.12 331.2 44.86 330.48 44.34C329.76 43.82 329.4 43.24 329.4 42.6V19.02C329.4 18.3 329.76 17.72 330.48 17.28C331.2 16.84 332.12 16.62 333.24 16.62C334.2 16.62 335 16.84 335.64 17.28C336.32 17.72 336.66 18.3 336.66 19.02V20.82C337.26 19.66 338.24 18.62 339.6 17.7C341 16.74 342.7 16.26 344.7 16.26C346.58 16.26 348.3 16.82 349.86 17.94C351.42 19.02 352.66 20.48 353.58 22.32C354.54 24.16 355.02 26.2 355.02 28.44V42.6C355.02 43.44 354.62 44.08 353.82 44.52C353.02 44.92 352.12 45.12 351.12 45.12C350.24 45.12 349.38 44.92 348.54 44.52C347.7 44.08 347.28 43.44 347.28 42.6V28.44C347.28 27.52 347.04 26.66 346.56 25.86C346.12 25.06 345.5 24.4 344.7 23.88C343.9 23.32 343.02 23.04 342.06 23.04C341.26 23.04 340.48 23.26 339.72 23.7C338.96 24.14 338.34 24.76 337.86 25.56C337.38 26.36 337.14 27.32 337.14 28.44V42.6C337.14 43.24 336.76 43.82 336 44.34C335.24 44.86 334.32 45.12 333.24 45.12Z" fill="#335E3C"/>
<path d="M376.838 45.12C375.798 45.12 374.958 44.88 374.318 44.4C373.718 43.92 373.418 43.34 373.418 42.66V3.78C373.418 2.94 373.778 2.32 374.498 1.92C375.218 1.48 375.998 1.26 376.838 1.26H388.478C390.518 1.26 392.458 1.56 394.298 2.16C396.138 2.72 397.638 3.76 398.798 5.28C399.958 6.8 400.538 8.98 400.538 11.82C400.538 14.26 400.078 16.3 399.158 17.94C398.238 19.54 396.998 20.68 395.438 21.36C396.678 21.8 397.758 22.42 398.678 23.22C399.598 23.98 400.318 25 400.838 26.28C401.358 27.52 401.618 29.14 401.618 31.14V32.4C401.618 35.52 401.078 38.02 399.998 39.9C398.958 41.74 397.518 43.08 395.678 43.92C393.878 44.72 391.858 45.12 389.618 45.12H376.838ZM381.218 38.28H387.938C389.778 38.28 391.218 37.76 392.258 36.72C393.298 35.68 393.818 34.02 393.818 31.74V30.78C393.818 28.42 393.298 26.78 392.258 25.86C391.218 24.9 389.778 24.42 387.938 24.42H381.218V38.28ZM381.218 18.3H387.938C389.578 18.3 390.778 17.82 391.538 16.86C392.338 15.9 392.738 14.66 392.738 13.14C392.738 12.06 392.538 11.16 392.138 10.44C391.738 9.68 391.178 9.1 390.458 8.7C389.738 8.3 388.878 8.1 387.878 8.1H381.218V18.3Z" fill="#335E3C"/>
<path d="M419.949 45.66C417.109 45.66 414.589 45.16 412.389 44.16C410.229 43.12 408.529 41.68 407.289 39.84C406.049 37.96 405.429 35.8 405.429 33.36V28.26C405.429 26.1 406.009 24.12 407.169 22.32C408.369 20.48 409.949 19.02 411.909 17.94C413.909 16.82 416.129 16.26 418.569 16.26C420.809 16.26 422.849 16.74 424.689 17.7C426.569 18.66 428.089 19.98 429.249 21.66C430.409 23.34 430.989 25.3 430.989 27.54C430.989 29.26 430.709 30.5 430.149 31.26C429.589 31.98 428.869 32.44 427.989 32.64C427.149 32.8 426.269 32.88 425.349 32.88H413.169V33.78C413.169 35.5 413.809 36.9 415.089 37.98C416.409 39.02 418.109 39.54 420.189 39.54C421.509 39.54 422.609 39.34 423.489 38.94C424.369 38.54 425.129 38.16 425.769 37.8C426.409 37.44 427.009 37.26 427.569 37.26C428.169 37.26 428.689 37.46 429.129 37.86C429.569 38.26 429.909 38.74 430.149 39.3C430.389 39.82 430.509 40.28 430.509 40.68C430.509 41.36 430.069 42.1 429.189 42.9C428.349 43.66 427.129 44.32 425.529 44.88C423.969 45.4 422.109 45.66 419.949 45.66ZM413.169 28.32H421.929C422.609 28.32 423.069 28.22 423.309 28.02C423.589 27.78 423.729 27.34 423.729 26.7C423.729 25.78 423.469 24.96 422.949 24.24C422.469 23.52 421.829 22.96 421.029 22.56C420.269 22.16 419.409 21.96 418.449 21.96C417.529 21.96 416.669 22.16 415.869 22.56C415.069 22.92 414.409 23.46 413.889 24.18C413.409 24.86 413.169 25.68 413.169 26.64V28.32Z" fill="#335E3C"/>
<path d="M439.47 45.12C438.35 45.12 437.43 44.86 436.71 44.34C435.99 43.82 435.63 43.24 435.63 42.6V19.02C435.63 18.3 435.99 17.72 436.71 17.28C437.43 16.84 438.35 16.62 439.47 16.62C440.43 16.62 441.23 16.84 441.87 17.28C442.55 17.72 442.89 18.3 442.89 19.02V20.82C443.49 19.66 444.47 18.62 445.83 17.7C447.23 16.74 448.93 16.26 450.93 16.26C452.81 16.26 454.53 16.82 456.09 17.94C457.65 19.02 458.89 20.48 459.81 22.32C460.77 24.16 461.25 26.2 461.25 28.44V42.6C461.25 43.44 460.85 44.08 460.05 44.52C459.25 44.92 458.35 45.12 457.35 45.12C456.47 45.12 455.61 44.92 454.77 44.52C453.93 44.08 453.51 43.44 453.51 42.6V28.44C453.51 27.52 453.27 26.66 452.79 25.86C452.35 25.06 451.73 24.4 450.93 23.88C450.13 23.32 449.25 23.04 448.29 23.04C447.49 23.04 446.71 23.26 445.95 23.7C445.19 24.14 444.57 24.76 444.09 25.56C443.61 26.36 443.37 27.32 443.37 28.44V42.6C443.37 43.24 442.99 43.82 442.23 44.34C441.47 44.86 440.55 45.12 439.47 45.12Z" fill="#335E3C"/>
<path d="M476.517 45.66C474.637 45.66 472.897 45.08 471.297 43.92C469.697 42.76 468.417 41.24 467.457 39.36C466.497 37.48 466.017 35.48 466.017 33.36V28.44C466.017 26.2 466.497 24.16 467.457 22.32C468.417 20.48 469.697 19.02 471.297 17.94C472.897 16.82 474.677 16.26 476.637 16.26C478.517 16.26 480.117 16.74 481.437 17.7C482.757 18.62 483.737 19.66 484.377 20.82V2.4C484.377 1.68 484.757 1.1 485.517 0.66C486.277 0.220001 487.217 0 488.337 0C489.417 0 490.317 0.220001 491.037 0.66C491.757 1.1 492.117 1.68 492.117 2.4V42.6C492.117 43.24 491.757 43.82 491.037 44.34C490.317 44.86 489.417 45.12 488.337 45.12C487.377 45.12 486.557 44.86 485.877 44.34C485.197 43.82 484.857 43.24 484.857 42.6V40.92C484.257 42.16 483.177 43.26 481.617 44.22C480.097 45.18 478.397 45.66 476.517 45.66ZM478.977 38.88C480.017 38.88 480.937 38.6 481.737 38.04C482.537 37.44 483.177 36.8 483.657 36.12C484.137 35.4 484.377 34.84 484.377 34.44V28.44C484.377 27.32 484.097 26.36 483.537 25.56C483.017 24.76 482.337 24.14 481.497 23.7C480.697 23.26 479.877 23.04 479.037 23.04C478.077 23.04 477.177 23.32 476.337 23.88C475.537 24.4 474.897 25.06 474.417 25.86C473.977 26.66 473.757 27.52 473.757 28.44V33.36C473.757 34.28 473.977 35.16 474.417 36C474.897 36.84 475.537 37.54 476.337 38.1C477.137 38.62 478.017 38.88 478.977 38.88Z" fill="#335E3C"/>
<path d="M500.01 51.12C499.45 51.12 498.87 50.94 498.27 50.58C497.71 50.26 497.43 49.76 497.43 49.08C497.43 48.8 497.49 48.52 497.61 48.24L499.05 45.06C498.37 44.66 497.83 44.16 497.43 43.56C497.03 42.92 496.83 42.2 496.83 41.4C496.83 40.28 497.21 39.32 497.97 38.52C498.77 37.72 499.73 37.32 500.85 37.32C501.97 37.32 502.93 37.72 503.73 38.52C504.53 39.28 504.93 40.22 504.93 41.34C504.93 41.5 504.89 41.72 504.81 42C504.77 42.24 504.65 42.64 504.45 43.2C504.25 43.76 503.91 44.58 503.43 45.66C502.99 46.78 502.39 48.26 501.63 50.1C501.47 50.46 501.23 50.72 500.91 50.88C500.59 51.04 500.29 51.12 500.01 51.12Z" fill="#335E3C"/>
<path d="M535.866 45.48C533.226 45.48 530.846 45.04 528.726 44.16C526.606 43.24 524.906 41.78 523.626 39.78C522.386 37.74 521.766 35.04 521.766 31.68V15.06C521.766 11.7 522.386 9.02 523.626 7.02C524.906 4.98 526.586 3.52 528.666 2.64C530.786 1.72 533.186 1.26 535.866 1.26C538.506 1.26 540.886 1.72 543.006 2.64C545.166 3.52 546.866 4.98 548.106 7.02C549.346 9.02 549.966 11.7 549.966 15.06V31.68C549.966 35.04 549.346 37.74 548.106 39.78C546.866 41.78 545.166 43.24 543.006 44.16C540.886 45.04 538.506 45.48 535.866 45.48ZM535.866 38.64C537.826 38.64 539.366 38.08 540.486 36.96C541.606 35.84 542.166 34.08 542.166 31.68V15.06C542.166 12.66 541.606 10.9 540.486 9.78C539.366 8.66 537.826 8.1 535.866 8.1C533.906 8.1 532.366 8.66 531.246 9.78C530.166 10.9 529.626 12.66 529.626 15.06V31.68C529.626 34.08 530.166 35.84 531.246 36.96C532.366 38.08 533.906 38.64 535.866 38.64Z" fill="#335E3C"/>
<path d="M559.821 45.12C558.741 45.12 557.841 44.86 557.121 44.34C556.401 43.82 556.041 43.24 556.041 42.6V19.02C556.041 18.3 556.401 17.72 557.121 17.28C557.841 16.84 558.741 16.62 559.821 16.62C560.821 16.62 561.641 16.84 562.281 17.28C562.961 17.72 563.301 18.3 563.301 19.02V21.48C563.741 20.6 564.321 19.78 565.041 19.02C565.801 18.22 566.661 17.56 567.621 17.04C568.581 16.52 569.601 16.26 570.681 16.26H572.541C573.301 16.26 573.961 16.6 574.521 17.28C575.081 17.92 575.361 18.7 575.361 19.62C575.361 20.58 575.081 21.4 574.521 22.08C573.961 22.72 573.301 23.04 572.541 23.04H570.681C569.561 23.04 568.461 23.42 567.381 24.18C566.341 24.9 565.481 25.92 564.801 27.24C564.121 28.52 563.781 30.08 563.781 31.92V42.6C563.781 43.24 563.401 43.82 562.641 44.34C561.881 44.86 560.941 45.12 559.821 45.12Z" fill="#335E3C"/>
<path d="M591.278 45.66C588.438 45.66 585.918 45.16 583.718 44.16C581.558 43.12 579.858 41.68 578.618 39.84C577.378 37.96 576.758 35.8 576.758 33.36V28.26C576.758 26.1 577.337 24.12 578.497 22.32C579.697 20.48 581.278 19.02 583.238 17.94C585.238 16.82 587.458 16.26 589.898 16.26C592.138 16.26 594.178 16.74 596.018 17.7C597.898 18.66 599.418 19.98 600.578 21.66C601.738 23.34 602.318 25.3 602.318 27.54C602.318 29.26 602.038 30.5 601.478 31.26C600.918 31.98 600.198 32.44 599.318 32.64C598.478 32.8 597.598 32.88 596.678 32.88H584.497V33.78C584.497 35.5 585.138 36.9 586.418 37.98C587.738 39.02 589.438 39.54 591.518 39.54C592.838 39.54 593.938 39.34 594.818 38.94C595.698 38.54 596.458 38.16 597.098 37.8C597.738 37.44 598.338 37.26 598.898 37.26C599.498 37.26 600.018 37.46 600.458 37.86C600.898 38.26 601.238 38.74 601.478 39.3C601.718 39.82 601.838 40.28 601.838 40.68C601.838 41.36 601.398 42.1 600.518 42.9C599.678 43.66 598.458 44.32 596.858 44.88C595.298 45.4 593.438 45.66 591.278 45.66ZM584.497 28.32H593.258C593.938 28.32 594.398 28.22 594.638 28.02C594.918 27.78 595.057 27.34 595.057 26.7C595.057 25.78 594.798 24.96 594.278 24.24C593.798 23.52 593.158 22.96 592.358 22.56C591.598 22.16 590.738 21.96 589.778 21.96C588.858 21.96 587.998 22.16 587.198 22.56C586.398 22.92 585.738 23.46 585.218 24.18C584.738 24.86 584.497 25.68 584.497 26.64V28.32Z" fill="#335E3C"/>
<path d="M618.179 58.38C615.819 58.38 613.619 58.04 611.579 57.36C609.579 56.72 607.959 55.76 606.719 54.48C605.519 53.2 604.919 51.68 604.919 49.92C604.919 48.4 605.339 47.1 606.179 46.02C607.019 44.98 608.059 44.16 609.299 43.56C608.539 43.2 607.919 42.72 607.439 42.12C606.999 41.48 606.779 40.68 606.779 39.72C606.779 38.6 607.059 37.7 607.619 37.02C608.219 36.3 608.959 35.64 609.839 35.04C608.639 34.12 607.699 33.02 607.019 31.74C606.379 30.42 606.059 28.98 606.059 27.42V26.16C606.059 24.2 606.539 22.48 607.499 21C608.499 19.52 609.879 18.36 611.639 17.52C613.439 16.68 615.499 16.26 617.819 16.26C619.139 16.26 620.379 16.42 621.539 16.74C622.699 17.02 623.739 17.44 624.659 18C625.339 16.4 625.979 15.32 626.579 14.76C627.179 14.2 627.759 13.92 628.319 13.92C629.279 13.92 630.019 14.2 630.539 14.76C631.099 15.32 631.379 15.84 631.379 16.32C631.379 16.68 631.279 17 631.079 17.28C630.919 17.56 630.699 17.8 630.419 18C630.019 18.24 629.559 18.54 629.039 18.9C628.519 19.22 628.039 19.68 627.599 20.28C628.319 21.08 628.839 21.98 629.159 22.98C629.519 23.94 629.699 25 629.699 26.16V27.42C629.699 29.34 629.199 31.06 628.199 32.58C627.199 34.06 625.799 35.24 623.999 36.12C622.199 37 620.139 37.44 617.819 37.44C616.379 37.44 615.079 37.26 613.919 36.9C613.719 37.06 613.539 37.24 613.379 37.44C613.259 37.64 613.199 37.86 613.199 38.1C613.199 38.78 613.639 39.26 614.519 39.54C615.399 39.82 616.519 40.04 617.879 40.2C619.239 40.36 620.679 40.58 622.199 40.86C623.759 41.1 625.219 41.5 626.579 42.06C627.939 42.62 629.059 43.46 629.939 44.58C630.819 45.66 631.259 47.12 631.259 48.96C631.259 51.2 630.619 53 629.339 54.36C628.099 55.76 626.479 56.78 624.479 57.42C622.519 58.06 620.419 58.38 618.179 58.38ZM618.059 53.4C619.619 53.4 620.939 53.02 622.019 52.26C623.139 51.5 623.699 50.48 623.699 49.2C623.699 48.36 623.459 47.68 622.979 47.16C622.499 46.64 621.839 46.24 620.999 45.96C620.199 45.72 619.319 45.52 618.359 45.36C617.399 45.24 616.439 45.12 615.479 45C614.519 45.44 613.739 46 613.139 46.68C612.539 47.36 612.239 48.18 612.239 49.14C612.239 50.46 612.799 51.5 613.919 52.26C615.079 53.02 616.459 53.4 618.059 53.4ZM617.939 32.76C619.259 32.76 620.299 32.26 621.059 31.26C621.819 30.26 622.199 28.98 622.199 27.42V26.16C622.199 24.68 621.819 23.44 621.059 22.44C620.339 21.44 619.279 20.94 617.879 20.94C616.519 20.94 615.459 21.44 614.699 22.44C613.979 23.44 613.619 24.68 613.619 26.16V27.36C613.619 28.88 613.979 30.16 614.699 31.2C615.459 32.24 616.539 32.76 617.939 32.76Z" fill="#335E3C"/>
<path d="M646.905 45.66C644.585 45.66 642.445 45.1 640.485 43.98C638.525 42.82 636.945 41.3 635.745 39.42C634.545 37.54 633.945 35.52 633.945 33.36V28.44C633.945 26.28 634.525 24.28 635.685 22.44C636.845 20.56 638.405 19.06 640.365 17.94C642.365 16.82 644.545 16.26 646.905 16.26C649.265 16.26 651.425 16.82 653.385 17.94C655.385 19.02 656.965 20.48 658.125 22.32C659.325 24.16 659.925 26.2 659.925 28.44V33.36C659.925 35.48 659.325 37.48 658.125 39.36C656.925 41.24 655.325 42.76 653.325 43.92C651.365 45.08 649.225 45.66 646.905 45.66ZM646.905 38.88C647.865 38.88 648.745 38.62 649.545 38.1C650.345 37.58 650.985 36.9 651.465 36.06C651.945 35.18 652.185 34.28 652.185 33.36V28.44C652.185 27.52 651.945 26.66 651.465 25.86C650.985 25.06 650.345 24.4 649.545 23.88C648.785 23.32 647.905 23.04 646.905 23.04C645.945 23.04 645.065 23.3 644.265 23.82C643.465 24.34 642.825 25.02 642.345 25.86C641.905 26.66 641.685 27.52 641.685 28.44V33.36C641.685 34.28 641.905 35.18 642.345 36.06C642.825 36.9 643.465 37.58 644.265 38.1C645.065 38.62 645.945 38.88 646.905 38.88Z" fill="#335E3C"/>
<path d="M668.689 45.12C667.569 45.12 666.649 44.86 665.929 44.34C665.209 43.82 664.849 43.24 664.849 42.6V19.02C664.849 18.3 665.209 17.72 665.929 17.28C666.649 16.84 667.569 16.62 668.689 16.62C669.649 16.62 670.449 16.84 671.089 17.28C671.769 17.72 672.109 18.3 672.109 19.02V20.82C672.709 19.66 673.689 18.62 675.049 17.7C676.449 16.74 678.149 16.26 680.149 16.26C682.029 16.26 683.749 16.82 685.309 17.94C686.869 19.02 688.109 20.48 689.029 22.32C689.989 24.16 690.469 26.2 690.469 28.44V42.6C690.469 43.44 690.069 44.08 689.269 44.52C688.469 44.92 687.569 45.12 686.569 45.12C685.689 45.12 684.829 44.92 683.989 44.52C683.149 44.08 682.729 43.44 682.729 42.6V28.44C682.729 27.52 682.489 26.66 682.009 25.86C681.569 25.06 680.949 24.4 680.149 23.88C679.349 23.32 678.469 23.04 677.509 23.04C676.709 23.04 675.929 23.26 675.169 23.7C674.409 24.14 673.789 24.76 673.309 25.56C672.829 26.36 672.589 27.32 672.589 28.44V42.6C672.589 43.24 672.209 43.82 671.449 44.34C670.689 44.86 669.769 45.12 668.689 45.12Z" fill="#335E3C"/>
<path d="M196.393 98.9879C195.156 98.9879 194.036 98.7639 193.033 98.3159C192.031 97.8679 191.231 97.1425 190.633 96.1399C190.036 95.1372 189.737 93.8039 189.737 92.1399V82.2519C189.737 80.5879 190.036 79.2545 190.633 78.2519C191.231 77.2492 192.02 76.5239 193.001 76.0759C194.004 75.6279 195.135 75.4039 196.393 75.4039C197.652 75.4039 198.783 75.6279 199.785 76.0759C200.788 76.5239 201.588 77.2492 202.185 78.2519C202.783 79.2545 203.081 80.5879 203.081 82.2519V92.1399C203.081 93.8039 202.783 95.1372 202.185 96.1399C201.588 97.1425 200.788 97.8679 199.785 98.3159C198.783 98.7639 197.652 98.9879 196.393 98.9879ZM196.393 97.0359C197.823 97.0359 198.932 96.6412 199.721 95.8519C200.532 95.0625 200.937 93.8252 200.937 92.1399V82.2519C200.937 80.5665 200.532 79.3292 199.721 78.5399C198.932 77.7505 197.823 77.3559 196.393 77.3559C194.964 77.3559 193.855 77.7505 193.065 78.5399C192.276 79.3292 191.881 80.5665 191.881 82.2519V92.1399C191.881 93.8252 192.276 95.0625 193.065 95.8519C193.855 96.6412 194.964 97.0359 196.393 97.0359Z" fill="#335E3C"/>
<path d="M208.101 98.7959C207.823 98.7959 207.578 98.7105 207.365 98.5399C207.173 98.3692 207.077 98.1772 207.077 97.9639V84.4599C207.077 84.2039 207.173 84.0119 207.365 83.8839C207.578 83.7345 207.823 83.6599 208.101 83.6599C208.378 83.6599 208.613 83.7345 208.805 83.8839C208.997 84.0119 209.093 84.2039 209.093 84.4599V85.8999C209.434 85.2812 209.967 84.7265 210.693 84.2359C211.418 83.7239 212.314 83.4679 213.381 83.4679C214.405 83.4679 215.343 83.7452 216.197 84.2999C217.071 84.8332 217.765 85.5585 218.277 86.4759C218.789 87.3719 219.045 88.3745 219.045 89.4839V97.9639C219.045 98.2412 218.938 98.4545 218.725 98.6039C218.511 98.7319 218.266 98.7959 217.989 98.7959C217.754 98.7959 217.519 98.7319 217.285 98.6039C217.071 98.4545 216.965 98.2412 216.965 97.9639V89.4839C216.965 88.7799 216.783 88.1185 216.421 87.4999C216.058 86.8812 215.578 86.3799 214.981 85.9959C214.383 85.5906 213.722 85.3879 212.997 85.3879C212.357 85.3879 211.738 85.5585 211.141 85.8999C210.565 86.2199 210.085 86.6785 209.701 87.2759C209.338 87.8732 209.157 88.6092 209.157 89.4839V97.9639C209.157 98.1772 209.05 98.3692 208.837 98.5399C208.645 98.7105 208.399 98.7959 208.101 98.7959Z" fill="#335E3C"/>
<path d="M224.201 98.7959C223.924 98.7959 223.678 98.7105 223.465 98.5399C223.273 98.3692 223.177 98.1772 223.177 97.9639V75.1799C223.177 74.9239 223.273 74.7319 223.465 74.6039C223.678 74.4545 223.924 74.3799 224.201 74.3799C224.5 74.3799 224.745 74.4545 224.937 74.6039C225.15 74.7319 225.257 74.9239 225.257 75.1799V97.9639C225.257 98.1772 225.15 98.3692 224.937 98.5399C224.745 98.7105 224.5 98.7959 224.201 98.7959Z" fill="#335E3C"/>
<path d="M230.601 79.1799C230.217 79.1799 229.876 79.0519 229.577 78.7959C229.3 78.5185 229.161 78.1985 229.161 77.8359C229.161 77.4732 229.3 77.1639 229.577 76.9079C229.876 76.6519 230.217 76.5239 230.601 76.5239C230.985 76.5239 231.316 76.6519 231.593 76.9079C231.871 77.1639 232.009 77.4732 232.009 77.8359C232.009 78.1985 231.871 78.5185 231.593 78.7959C231.316 79.0519 230.985 79.1799 230.601 79.1799ZM230.569 98.7959C230.292 98.7959 230.047 98.7105 229.833 98.5399C229.641 98.3692 229.545 98.1772 229.545 97.9639V84.4599C229.545 84.2039 229.641 84.0119 229.833 83.8839C230.047 83.7345 230.292 83.6599 230.569 83.6599C230.868 83.6599 231.113 83.7345 231.305 83.8839C231.519 84.0119 231.625 84.2039 231.625 84.4599V97.9639C231.625 98.1772 231.519 98.3692 231.305 98.5399C231.113 98.7105 230.868 98.7959 230.569 98.7959Z" fill="#335E3C"/>
<path d="M236.632 98.7959C236.354 98.7959 236.109 98.7105 235.896 98.5399C235.704 98.3692 235.608 98.1772 235.608 97.9639V84.4599C235.608 84.2039 235.704 84.0119 235.896 83.8839C236.109 83.7345 236.354 83.6599 236.632 83.6599C236.909 83.6599 237.144 83.7345 237.336 83.8839C237.528 84.0119 237.624 84.2039 237.624 84.4599V85.8999C237.965 85.2812 238.498 84.7265 239.224 84.2359C239.949 83.7239 240.845 83.4679 241.912 83.4679C242.936 83.4679 243.874 83.7452 244.728 84.2999C245.602 84.8332 246.296 85.5585 246.808 86.4759C247.32 87.3719 247.576 88.3745 247.576 89.4839V97.9639C247.576 98.2412 247.469 98.4545 247.256 98.6039C247.042 98.7319 246.797 98.7959 246.52 98.7959C246.285 98.7959 246.05 98.7319 245.816 98.6039C245.602 98.4545 245.496 98.2412 245.496 97.9639V89.4839C245.496 88.7799 245.314 88.1185 244.952 87.4999C244.589 86.8812 244.109 86.3799 243.512 85.9959C242.914 85.5906 242.253 85.3879 241.528 85.3879C240.888 85.3879 240.269 85.5585 239.672 85.8999C239.096 86.2199 238.616 86.6785 238.232 87.2759C237.869 87.8732 237.688 88.6092 237.688 89.4839V97.9639C237.688 98.1772 237.581 98.3692 237.368 98.5399C237.176 98.7105 236.93 98.7959 236.632 98.7959Z" fill="#335E3C"/>
<path d="M257.756 99.0199C256.412 99.0199 255.218 98.7639 254.172 98.2519C253.148 97.7399 252.338 97.0359 251.74 96.1399C251.164 95.2225 250.876 94.1559 250.876 92.9399V89.3879C250.876 88.3212 251.154 87.3399 251.708 86.4439C252.263 85.5265 252.999 84.8012 253.916 84.2679C254.855 83.7345 255.879 83.4679 256.988 83.4679C258.055 83.4679 259.036 83.7239 259.932 84.2359C260.85 84.7265 261.586 85.4092 262.14 86.2839C262.695 87.1585 262.972 88.1719 262.972 89.3239C262.972 90.1345 262.834 90.7212 262.556 91.0839C262.279 91.4466 261.927 91.6705 261.5 91.7559C261.095 91.8199 260.658 91.8519 260.188 91.8519H252.956V93.0359C252.956 94.3159 253.415 95.3292 254.332 96.0759C255.25 96.8226 256.412 97.1959 257.82 97.1959C258.674 97.1959 259.335 97.0892 259.804 96.8759C260.274 96.6625 260.636 96.4492 260.892 96.2359C261.17 96.0226 261.426 95.9159 261.66 95.9159C261.831 95.9159 261.98 95.9799 262.108 96.1079C262.258 96.2146 262.364 96.3425 262.428 96.4919C262.514 96.6412 262.556 96.7799 262.556 96.9079C262.556 97.1425 262.364 97.4305 261.98 97.7719C261.596 98.1132 261.042 98.4119 260.316 98.6679C259.591 98.9026 258.738 99.0199 257.756 99.0199ZM252.956 90.3159H259.356C259.996 90.3159 260.423 90.2519 260.636 90.1239C260.85 89.9745 260.956 89.6759 260.956 89.2279C260.956 88.5452 260.786 87.9052 260.444 87.3079C260.103 86.6892 259.634 86.1879 259.036 85.8039C258.439 85.3985 257.746 85.1959 256.956 85.1959C256.231 85.1959 255.559 85.3772 254.94 85.7399C254.343 86.1025 253.863 86.5719 253.5 87.1479C253.138 87.7239 252.956 88.3746 252.956 89.0999V90.3159Z" fill="#335E3C"/>
<path d="M278.211 99.0199C276.845 99.0199 275.672 98.8172 274.691 98.4119C273.709 97.9852 272.952 97.5052 272.419 96.9719C271.907 96.4172 271.651 95.9479 271.651 95.5639C271.651 95.3932 271.693 95.2119 271.779 95.0199C271.885 94.8279 272.013 94.6786 272.163 94.5719C272.312 94.4439 272.461 94.3799 272.611 94.3799C272.824 94.3799 273.037 94.5185 273.251 94.7959C273.485 95.0519 273.784 95.3612 274.147 95.7239C274.531 96.0652 275.032 96.3745 275.651 96.6519C276.269 96.9079 277.08 97.0359 278.083 97.0359C279.085 97.0359 279.939 96.8759 280.643 96.5559C281.347 96.2146 281.891 95.7239 282.275 95.0839C282.659 94.4226 282.851 93.6012 282.851 92.6199C282.851 91.5959 282.659 90.7746 282.275 90.1559C281.891 89.5372 281.379 89.0252 280.739 88.6199C280.12 88.2145 279.437 87.8732 278.691 87.5959C277.944 87.3185 277.187 87.0306 276.419 86.7319C275.672 86.4332 274.979 86.0705 274.339 85.6439C273.699 85.1959 273.187 84.6199 272.803 83.9159C272.419 83.1905 272.227 82.2732 272.227 81.1639C272.227 80.0119 272.44 79.0625 272.867 78.3159C273.293 77.5479 273.837 76.9505 274.499 76.5239C275.181 76.0972 275.917 75.7985 276.707 75.6279C277.496 75.4359 278.264 75.3399 279.011 75.3399C279.608 75.3399 280.216 75.3932 280.835 75.4999C281.475 75.5852 282.061 75.7132 282.595 75.8839C283.128 76.0545 283.555 76.2679 283.875 76.5239C284.216 76.7585 284.387 77.0252 284.387 77.3239C284.387 77.4519 284.344 77.6119 284.259 77.8039C284.195 77.9745 284.099 78.1345 283.971 78.2839C283.843 78.4332 283.672 78.5079 283.459 78.5079C283.267 78.5079 283 78.4119 282.659 78.2199C282.317 78.0065 281.848 77.8039 281.251 77.6119C280.675 77.3985 279.917 77.2919 278.979 77.2919C278.211 77.2919 277.464 77.3985 276.739 77.6119C276.035 77.8252 275.459 78.2092 275.011 78.7639C274.563 79.2972 274.339 80.0332 274.339 80.9719C274.339 81.8252 274.531 82.5186 274.915 83.0519C275.32 83.5639 275.832 83.9799 276.451 84.2999C277.091 84.6199 277.784 84.9185 278.531 85.1959C279.277 85.4519 280.024 85.7505 280.771 86.0919C281.539 86.4119 282.232 86.8279 282.851 87.3399C283.491 87.8305 284.003 88.4812 284.387 89.2919C284.771 90.1025 284.963 91.1479 284.963 92.4279C284.963 93.9426 284.675 95.1905 284.099 96.1719C283.523 97.1319 282.723 97.8466 281.699 98.3159C280.696 98.7852 279.533 99.0199 278.211 99.0199Z" fill="#335E3C"/>
<path d="M293.319 98.7959C291.677 98.7959 290.418 98.4225 289.543 97.6759C288.669 96.9292 288.231 95.7345 288.231 94.0919V77.2599C288.231 77.0039 288.338 76.8119 288.551 76.6839C288.786 76.5345 289.021 76.4599 289.255 76.4599C289.533 76.4599 289.778 76.5345 289.991 76.6839C290.205 76.8119 290.311 77.0039 290.311 77.2599V83.6599H294.471C294.685 83.6599 294.855 83.7452 294.983 83.9159C295.111 84.0865 295.175 84.2892 295.175 84.5239C295.175 84.7586 295.111 84.9612 294.983 85.1319C294.855 85.3025 294.685 85.3879 294.471 85.3879H290.311V94.0919C290.311 95.1372 290.535 95.8732 290.983 96.2999C291.431 96.7052 292.21 96.9079 293.319 96.9079H294.215C294.514 96.9079 294.738 97.0039 294.887 97.1959C295.058 97.3665 295.143 97.5799 295.143 97.8359C295.143 98.0919 295.058 98.3159 294.887 98.5079C294.738 98.6999 294.514 98.7959 294.215 98.7959H293.319Z" fill="#335E3C"/>
<path d="M302.956 99.0199C301.868 99.0199 300.865 98.7425 299.948 98.1879C299.03 97.6119 298.284 96.8652 297.708 95.9479C297.153 95.0092 296.876 94.0065 296.876 92.9399V89.4839C296.876 88.3959 297.142 87.4039 297.676 86.5079C298.23 85.5905 298.966 84.8545 299.884 84.2999C300.822 83.7452 301.846 83.4679 302.956 83.4679C304.044 83.4679 305.046 83.7452 305.964 84.2999C306.902 84.8332 307.649 85.5479 308.204 86.4439C308.758 87.3399 309.036 88.3532 309.036 89.4839V92.9399C309.036 93.9852 308.758 94.9772 308.204 95.9159C307.649 96.8545 306.902 97.6119 305.964 98.1879C305.046 98.7425 304.044 99.0199 302.956 99.0199ZM302.956 97.0999C303.702 97.0999 304.374 96.9079 304.972 96.5239C305.569 96.1186 306.049 95.5959 306.412 94.9559C306.774 94.3159 306.956 93.6439 306.956 92.9399V89.4839C306.956 88.7799 306.774 88.1185 306.412 87.4999C306.07 86.8812 305.59 86.3799 304.972 85.9959C304.374 85.5906 303.702 85.3879 302.956 85.3879C302.209 85.3879 301.537 85.5906 300.94 85.9959C300.342 86.3799 299.862 86.8812 299.5 87.4999C299.137 88.1185 298.956 88.7799 298.956 89.4839V92.9399C298.956 93.6439 299.137 94.3159 299.5 94.9559C299.862 95.5959 300.342 96.1186 300.94 96.5239C301.558 96.9079 302.23 97.0999 302.956 97.0999Z" fill="#335E3C"/>
<path d="M313.476 98.7959C313.198 98.7959 312.953 98.7105 312.74 98.5399C312.548 98.3692 312.452 98.1772 312.452 97.9639V84.4599C312.452 84.2039 312.548 84.0119 312.74 83.8839C312.953 83.7345 313.198 83.6599 313.476 83.6599C313.753 83.6599 313.988 83.7345 314.18 83.8839C314.372 84.0119 314.468 84.2039 314.468 84.4599V86.0279C314.702 85.5799 315.022 85.1639 315.428 84.7799C315.833 84.3959 316.313 84.0865 316.868 83.8519C317.422 83.5959 318.052 83.4679 318.756 83.4679H319.876C320.11 83.4679 320.302 83.5639 320.452 83.7559C320.622 83.9479 320.708 84.1719 320.708 84.4279C320.708 84.7052 320.622 84.9399 320.452 85.1319C320.302 85.3025 320.11 85.3879 319.876 85.3879H318.756C318.052 85.3879 317.369 85.5799 316.708 85.9639C316.068 86.3479 315.545 86.8812 315.14 87.5639C314.734 88.2465 314.532 89.0785 314.532 90.0599V97.9639C314.532 98.1772 314.425 98.3692 314.212 98.5399C314.02 98.7105 313.774 98.7959 313.476 98.7959Z" fill="#335E3C"/>
<path d="M328.663 99.0199C327.319 99.0199 326.124 98.7639 325.079 98.2519C324.055 97.7399 323.244 97.0359 322.647 96.1399C322.071 95.2225 321.783 94.1559 321.783 92.9399V89.3879C321.783 88.3212 322.06 87.3399 322.615 86.4439C323.169 85.5265 323.905 84.8012 324.823 84.2679C325.761 83.7345 326.785 83.4679 327.895 83.4679C328.961 83.4679 329.943 83.7239 330.839 84.2359C331.756 84.7265 332.492 85.4092 333.047 86.2839C333.601 87.1585 333.879 88.1719 333.879 89.3239C333.879 90.1345 333.74 90.7212 333.463 91.0839C333.185 91.4466 332.833 91.6705 332.407 91.7559C332.001 91.8199 331.564 91.8519 331.095 91.8519H323.863V93.0359C323.863 94.3159 324.321 95.3292 325.239 96.0759C326.156 96.8226 327.319 97.1959 328.727 97.1959C329.58 97.1959 330.241 97.0892 330.711 96.8759C331.18 96.6625 331.543 96.4492 331.799 96.2359C332.076 96.0226 332.332 95.9159 332.567 95.9159C332.737 95.9159 332.887 95.9799 333.015 96.1079C333.164 96.2146 333.271 96.3425 333.335 96.4919C333.42 96.6412 333.463 96.7799 333.463 96.9079C333.463 97.1425 333.271 97.4305 332.887 97.7719C332.503 98.1132 331.948 98.4119 331.223 98.6679C330.497 98.9026 329.644 99.0199 328.663 99.0199ZM323.863 90.3159H330.263C330.903 90.3159 331.329 90.2519 331.543 90.1239C331.756 89.9745 331.863 89.6759 331.863 89.2279C331.863 88.5452 331.692 87.9052 331.351 87.3079C331.009 86.6892 330.54 86.1879 329.943 85.8039C329.345 85.3985 328.652 85.1959 327.863 85.1959C327.137 85.1959 326.465 85.3772 325.847 85.7399C325.249 86.1025 324.769 86.5719 324.407 87.1479C324.044 87.7239 323.863 88.3746 323.863 89.0999V90.3159Z" fill="#335E3C"/>
<path d="M350.237 98.9879C349.042 98.9879 347.933 98.7639 346.909 98.3159C345.885 97.8679 345.074 97.1425 344.477 96.1399C343.88 95.1372 343.581 93.8039 343.581 92.1399V82.2519C343.581 80.5879 343.89 79.2545 344.509 78.2519C345.128 77.2492 345.938 76.5239 346.941 76.0759C347.965 75.6279 349.085 75.4039 350.301 75.4039C351.709 75.4039 352.904 75.6492 353.885 76.1399C354.866 76.6305 355.613 77.2812 356.125 78.0919C356.658 78.9025 356.925 79.7985 356.925 80.7799C356.925 81.2919 356.829 81.6332 356.637 81.8039C356.466 81.9532 356.21 82.0279 355.869 82.0279C355.485 82.0279 355.208 81.9532 355.037 81.8039C354.888 81.6332 354.802 81.4412 354.781 81.2279C354.781 80.8865 354.717 80.5025 354.589 80.0759C354.482 79.6279 354.269 79.2012 353.949 78.7959C353.65 78.3692 353.202 78.0279 352.605 77.7719C352.029 77.4945 351.272 77.3559 350.333 77.3559C348.84 77.3559 347.698 77.7612 346.909 78.5719C346.12 79.3612 345.725 80.5879 345.725 82.2519V92.1399C345.725 93.8252 346.12 95.0625 346.909 95.8519C347.72 96.6412 348.893 97.0359 350.429 97.0359C351.389 97.0359 352.146 96.9079 352.701 96.6519C353.256 96.3745 353.672 96.0439 353.949 95.6599C354.226 95.2546 354.418 94.8279 354.525 94.3799C354.653 93.9105 354.738 93.4839 354.781 93.0999C354.824 92.8226 354.92 92.6199 355.069 92.4919C355.24 92.3425 355.496 92.2679 355.837 92.2679C356.2 92.2679 356.466 92.3639 356.637 92.5559C356.829 92.7266 356.925 93.0679 356.925 93.5799C356.925 94.5399 356.658 95.4359 356.125 96.2679C355.592 97.0786 354.824 97.7399 353.821 98.2519C352.84 98.7426 351.645 98.9879 350.237 98.9879Z" fill="#335E3C"/>
<path d="M365.706 99.0199C364.618 99.0199 363.615 98.7425 362.698 98.1879C361.78 97.6119 361.034 96.8652 360.458 95.9479C359.903 95.0092 359.626 94.0065 359.626 92.9399V89.4839C359.626 88.3959 359.892 87.4039 360.426 86.5079C360.98 85.5905 361.716 84.8545 362.634 84.2999C363.572 83.7452 364.596 83.4679 365.706 83.4679C366.794 83.4679 367.796 83.7452 368.714 84.2999C369.652 84.8332 370.399 85.5479 370.954 86.4439C371.508 87.3399 371.786 88.3532 371.786 89.4839V92.9399C371.786 93.9852 371.508 94.9772 370.954 95.9159C370.399 96.8545 369.652 97.6119 368.714 98.1879C367.796 98.7425 366.794 99.0199 365.706 99.0199ZM365.706 97.0999C366.452 97.0999 367.124 96.9079 367.722 96.5239C368.319 96.1186 368.799 95.5959 369.162 94.9559C369.524 94.3159 369.706 93.6439 369.706 92.9399V89.4839C369.706 88.7799 369.524 88.1185 369.162 87.4999C368.82 86.8812 368.34 86.3799 367.722 85.9959C367.124 85.5906 366.452 85.3879 365.706 85.3879C364.959 85.3879 364.287 85.5906 363.69 85.9959C363.092 86.3799 362.612 86.8812 362.25 87.4999C361.887 88.1185 361.706 88.7799 361.706 89.4839V92.9399C361.706 93.6439 361.887 94.3159 362.25 94.9559C362.612 95.5959 363.092 96.1186 363.69 96.5239C364.308 96.9079 364.98 97.0999 365.706 97.0999Z" fill="#335E3C"/>
<path d="M376.226 98.7959C375.948 98.7959 375.703 98.7105 375.49 98.5399C375.298 98.3692 375.202 98.1772 375.202 97.9639V84.4599C375.202 84.2039 375.298 84.0119 375.49 83.8839C375.703 83.7345 375.948 83.6599 376.226 83.6599C376.503 83.6599 376.738 83.7345 376.93 83.8839C377.122 84.0119 377.218 84.2039 377.218 84.4599V85.8999C377.58 85.2812 378.114 84.7265 378.818 84.2359C379.543 83.7239 380.428 83.4679 381.474 83.4679C382.54 83.4679 383.468 83.7665 384.258 84.3639C385.047 84.9612 385.634 85.7292 386.018 86.6679C386.572 85.5799 387.287 84.7799 388.162 84.2679C389.058 83.7345 389.964 83.4679 390.882 83.4679C391.799 83.4679 392.663 83.7025 393.474 84.1719C394.306 84.6412 394.978 85.3239 395.49 86.2199C396.002 87.0945 396.258 88.1825 396.258 89.4839V97.9639C396.258 98.1772 396.151 98.3692 395.938 98.5399C395.746 98.7105 395.5 98.7959 395.202 98.7959C394.924 98.7959 394.679 98.7105 394.466 98.5399C394.274 98.3692 394.178 98.1772 394.178 97.9639V89.4839C394.178 88.5665 393.996 87.8092 393.634 87.2119C393.271 86.6146 392.802 86.1665 392.226 85.8679C391.671 85.5479 391.106 85.3879 390.53 85.3879C389.911 85.3879 389.314 85.5479 388.738 85.8679C388.183 86.1879 387.714 86.6465 387.33 87.2439C386.967 87.8199 386.786 88.5132 386.786 89.3239V97.9959C386.786 98.2732 386.668 98.4759 386.434 98.6039C386.22 98.7319 385.986 98.7959 385.73 98.7959C385.495 98.7959 385.26 98.7319 385.026 98.6039C384.812 98.4759 384.706 98.2732 384.706 97.9959V89.3559C384.706 88.5879 384.535 87.9052 384.194 87.3079C383.852 86.7105 383.404 86.2412 382.85 85.8999C382.316 85.5585 381.719 85.3879 381.058 85.3879C380.439 85.3879 379.842 85.5479 379.266 85.8679C378.69 86.1879 378.21 86.6572 377.826 87.2759C377.463 87.8732 377.282 88.6092 377.282 89.4839V97.9639C377.282 98.1772 377.175 98.3692 376.962 98.5399C376.77 98.7105 376.524 98.7959 376.226 98.7959Z" fill="#335E3C"/>
<path d="M401.195 79.1799C400.811 79.1799 400.47 79.0519 400.171 78.7959C399.894 78.5185 399.755 78.1985 399.755 77.8359C399.755 77.4732 399.894 77.1639 400.171 76.9079C400.47 76.6519 400.811 76.5239 401.195 76.5239C401.579 76.5239 401.91 76.6519 402.187 76.9079C402.464 77.1639 402.603 77.4732 402.603 77.8359C402.603 78.1985 402.464 78.5185 402.187 78.7959C401.91 79.0519 401.579 79.1799 401.195 79.1799ZM401.163 98.7959C400.886 98.7959 400.64 98.7105 400.427 98.5399C400.235 98.3692 400.139 98.1772 400.139 97.9639V84.4599C400.139 84.2039 400.235 84.0119 400.427 83.8839C400.64 83.7345 400.886 83.6599 401.163 83.6599C401.462 83.6599 401.707 83.7345 401.899 83.8839C402.112 84.0119 402.219 84.2039 402.219 84.4599V97.9639C402.219 98.1772 402.112 98.3692 401.899 98.5399C401.707 98.7105 401.462 98.7959 401.163 98.7959Z" fill="#335E3C"/>
<path d="M407.226 98.7959C406.948 98.7959 406.703 98.7105 406.49 98.5399C406.298 98.3692 406.202 98.1772 406.202 97.9639V84.4599C406.202 84.2039 406.298 84.0119 406.49 83.8839C406.703 83.7345 406.948 83.6599 407.226 83.6599C407.503 83.6599 407.738 83.7345 407.93 83.8839C408.122 84.0119 408.218 84.2039 408.218 84.4599V85.8999C408.559 85.2812 409.092 84.7265 409.818 84.2359C410.543 83.7239 411.439 83.4679 412.506 83.4679C413.53 83.4679 414.468 83.7452 415.322 84.2999C416.196 84.8332 416.89 85.5585 417.402 86.4759C417.914 87.3719 418.17 88.3745 418.17 89.4839V97.9639C418.17 98.2412 418.063 98.4545 417.85 98.6039C417.636 98.7319 417.391 98.7959 417.114 98.7959C416.879 98.7959 416.644 98.7319 416.41 98.6039C416.196 98.4545 416.09 98.2412 416.09 97.9639V89.4839C416.09 88.7799 415.908 88.1185 415.546 87.4999C415.183 86.8812 414.703 86.3799 414.106 85.9959C413.508 85.5906 412.847 85.3879 412.122 85.3879C411.482 85.3879 410.863 85.5585 410.266 85.8999C409.69 86.2199 409.21 86.6785 408.826 87.2759C408.463 87.8732 408.282 88.6092 408.282 89.4839V97.9639C408.282 98.1772 408.175 98.3692 407.962 98.5399C407.77 98.7105 407.524 98.7959 407.226 98.7959Z" fill="#335E3C"/>
<path d="M427.39 106.22C426.131 106.22 425.011 106.039 424.03 105.676C423.07 105.335 422.302 104.844 421.726 104.204C421.171 103.585 420.894 102.839 420.894 101.964C420.894 101.025 421.171 100.279 421.726 99.7239C422.281 99.1692 422.91 98.7532 423.614 98.4759C423.102 98.2839 422.675 98.0279 422.334 97.7079C422.014 97.3666 421.854 96.8866 421.854 96.2679C421.854 95.6705 422.003 95.2012 422.302 94.8599C422.601 94.4972 422.985 94.1985 423.454 93.9639C422.878 93.4945 422.43 92.9185 422.11 92.2359C421.811 91.5319 421.662 90.7639 421.662 89.9319V88.7159C421.662 87.6919 421.886 86.7852 422.334 85.9959C422.803 85.2066 423.454 84.5879 424.286 84.1399C425.118 83.6919 426.089 83.4679 427.198 83.4679C427.945 83.4679 428.638 83.5852 429.278 83.8199C429.918 84.0545 430.473 84.3852 430.942 84.8119C431.262 84.1505 431.625 83.6492 432.03 83.3079C432.435 82.9665 432.819 82.7959 433.182 82.7959C433.523 82.7959 433.769 82.8919 433.918 83.0839C434.089 83.2545 434.174 83.4359 434.174 83.6279C434.174 83.8199 434.121 83.9799 434.014 84.1079C433.907 84.2146 433.779 84.2892 433.63 84.3319C433.374 84.3745 433.075 84.4919 432.734 84.6839C432.414 84.8759 432.115 85.2172 431.838 85.7079C432.137 86.1132 432.361 86.5719 432.51 87.0839C432.659 87.5959 432.734 88.1399 432.734 88.7159V89.9319C432.734 90.9345 432.499 91.8412 432.03 92.6519C431.561 93.4625 430.899 94.1026 430.046 94.5719C429.214 95.0199 428.254 95.2439 427.166 95.2439C426.249 95.2439 425.427 95.0625 424.702 94.6999C424.467 94.8279 424.243 94.9879 424.03 95.1799C423.817 95.3505 423.71 95.6066 423.71 95.9479C423.71 96.4172 423.955 96.7586 424.446 96.9719C424.937 97.1852 425.555 97.3346 426.302 97.4199C427.049 97.5052 427.838 97.6012 428.67 97.7079C429.523 97.7932 430.323 97.9639 431.07 98.2199C431.838 98.4759 432.457 98.8706 432.926 99.4039C433.417 99.9372 433.662 100.695 433.662 101.676C433.662 102.679 433.385 103.511 432.83 104.172C432.297 104.855 431.561 105.367 430.622 105.708C429.683 106.049 428.606 106.22 427.39 106.22ZM427.358 104.652C428.702 104.652 429.747 104.385 430.494 103.852C431.241 103.319 431.614 102.615 431.614 101.74C431.614 101.057 431.411 100.535 431.006 100.172C430.601 99.8305 430.078 99.5852 429.438 99.4359C428.819 99.2865 428.169 99.1799 427.486 99.1159C426.825 99.0519 426.249 98.9879 425.758 98.9239C425.011 99.1585 424.35 99.4999 423.774 99.9479C423.198 100.396 422.91 101.004 422.91 101.772C422.91 102.625 423.305 103.319 424.094 103.852C424.883 104.385 425.971 104.652 427.358 104.652ZM427.23 93.6759C428.297 93.6759 429.139 93.3239 429.758 92.6199C430.377 91.8945 430.686 90.9985 430.686 89.9319V88.7159C430.686 87.6705 430.377 86.7959 429.758 86.0919C429.161 85.3879 428.307 85.0359 427.198 85.0359C426.089 85.0359 425.225 85.3879 424.606 86.0919C424.009 86.7959 423.71 87.6705 423.71 88.7159V89.8999C423.71 90.9666 424.019 91.8625 424.638 92.5879C425.257 93.3132 426.121 93.6759 427.23 93.6759Z" fill="#335E3C"/>
<path d="M448.68 99.0199C447.314 99.0199 446.141 98.8172 445.16 98.4119C444.178 97.9852 443.421 97.5052 442.888 96.9719C442.376 96.4172 442.12 95.9479 442.12 95.5639C442.12 95.3932 442.162 95.2119 442.248 95.0199C442.354 94.8279 442.482 94.6786 442.632 94.5719C442.781 94.4439 442.93 94.3799 443.08 94.3799C443.293 94.3799 443.506 94.5185 443.72 94.7959C443.954 95.0519 444.253 95.3612 444.616 95.7239C445 96.0652 445.501 96.3745 446.12 96.6519C446.738 96.9079 447.549 97.0359 448.552 97.0359C449.554 97.0359 450.408 96.8759 451.112 96.5559C451.816 96.2146 452.36 95.7239 452.744 95.0839C453.128 94.4226 453.32 93.6012 453.32 92.6199C453.32 91.5959 453.128 90.7746 452.744 90.1559C452.36 89.5372 451.848 89.0252 451.208 88.6199C450.589 88.2145 449.906 87.8732 449.16 87.5959C448.413 87.3185 447.656 87.0306 446.888 86.7319C446.141 86.4332 445.448 86.0705 444.808 85.6439C444.168 85.1959 443.656 84.6199 443.272 83.9159C442.888 83.1905 442.696 82.2732 442.696 81.1639C442.696 80.0119 442.909 79.0625 443.336 78.3159C443.762 77.5479 444.306 76.9505 444.968 76.5239C445.65 76.0972 446.386 75.7985 447.176 75.6279C447.965 75.4359 448.733 75.3399 449.48 75.3399C450.077 75.3399 450.685 75.3932 451.304 75.4999C451.944 75.5852 452.53 75.7132 453.064 75.8839C453.597 76.0545 454.024 76.2679 454.344 76.5239C454.685 76.7585 454.856 77.0252 454.856 77.3239C454.856 77.4519 454.813 77.6119 454.728 77.8039C454.664 77.9745 454.568 78.1345 454.44 78.2839C454.312 78.4332 454.141 78.5079 453.928 78.5079C453.736 78.5079 453.469 78.4119 453.128 78.2199C452.786 78.0065 452.317 77.8039 451.72 77.6119C451.144 77.3985 450.386 77.2919 449.448 77.2919C448.68 77.2919 447.933 77.3985 447.208 77.6119C446.504 77.8252 445.928 78.2092 445.48 78.7639C445.032 79.2972 444.808 80.0332 444.808 80.9719C444.808 81.8252 445 82.5186 445.384 83.0519C445.789 83.5639 446.301 83.9799 446.92 84.2999C447.56 84.6199 448.253 84.9185 449 85.1959C449.746 85.4519 450.493 85.7505 451.24 86.0919C452.008 86.4119 452.701 86.8279 453.32 87.3399C453.96 87.8305 454.472 88.4812 454.856 89.2919C455.24 90.1025 455.432 91.1479 455.432 92.4279C455.432 93.9426 455.144 95.1905 454.568 96.1719C453.992 97.1319 453.192 97.8466 452.168 98.3159C451.165 98.7852 450.002 99.0199 448.68 99.0199Z" fill="#335E3C"/>
<path d="M464.268 99.0199C463.18 99.0199 462.177 98.7425 461.26 98.1879C460.343 97.6119 459.596 96.8652 459.02 95.9479C458.465 95.0092 458.188 94.0065 458.188 92.9399V89.4839C458.188 88.3959 458.455 87.4039 458.988 86.5079C459.543 85.5905 460.279 84.8545 461.196 84.2999C462.135 83.7452 463.159 83.4679 464.268 83.4679C465.356 83.4679 466.359 83.7452 467.276 84.2999C468.215 84.8332 468.961 85.5479 469.516 86.4439C470.071 87.3399 470.348 88.3532 470.348 89.4839V92.9399C470.348 93.9852 470.071 94.9772 469.516 95.9159C468.961 96.8545 468.215 97.6119 467.276 98.1879C466.359 98.7425 465.356 99.0199 464.268 99.0199ZM464.268 97.0999C465.015 97.0999 465.687 96.9079 466.284 96.5239C466.881 96.1186 467.361 95.5959 467.724 94.9559C468.087 94.3159 468.268 93.6439 468.268 92.9399V89.4839C468.268 88.7799 468.087 88.1185 467.724 87.4999C467.383 86.8812 466.903 86.3799 466.284 85.9959C465.687 85.5906 465.015 85.3879 464.268 85.3879C463.521 85.3879 462.849 85.5906 462.252 85.9959C461.655 86.3799 461.175 86.8812 460.812 87.4999C460.449 88.1185 460.268 88.7799 460.268 89.4839V92.9399C460.268 93.6439 460.449 94.3159 460.812 94.9559C461.175 95.5959 461.655 96.1186 462.252 96.5239C462.871 96.9079 463.543 97.0999 464.268 97.0999Z" fill="#335E3C"/>
<path d="M479.268 99.0199C478.18 99.0199 477.177 98.7425 476.26 98.1879C475.343 97.6119 474.596 96.8652 474.02 95.9479C473.465 95.0092 473.188 94.0065 473.188 92.9399V89.4839C473.188 88.3959 473.455 87.4039 473.988 86.5079C474.543 85.5905 475.279 84.8545 476.196 84.2999C477.135 83.7452 478.159 83.4679 479.268 83.4679C480.356 83.4679 481.359 83.7452 482.276 84.2999C483.215 84.8332 483.961 85.5479 484.516 86.4439C485.071 87.3399 485.348 88.3532 485.348 89.4839V92.9399C485.348 93.9852 485.071 94.9772 484.516 95.9159C483.961 96.8545 483.215 97.6119 482.276 98.1879C481.359 98.7425 480.356 99.0199 479.268 99.0199ZM479.268 97.0999C480.015 97.0999 480.687 96.9079 481.284 96.5239C481.881 96.1186 482.361 95.5959 482.724 94.9559C483.087 94.3159 483.268 93.6439 483.268 92.9399V89.4839C483.268 88.7799 483.087 88.1185 482.724 87.4999C482.383 86.8812 481.903 86.3799 481.284 85.9959C480.687 85.5906 480.015 85.3879 479.268 85.3879C478.521 85.3879 477.849 85.5906 477.252 85.9959C476.655 86.3799 476.175 86.8812 475.812 87.4999C475.449 88.1185 475.268 88.7799 475.268 89.4839V92.9399C475.268 93.6439 475.449 94.3159 475.812 94.9559C476.175 95.5959 476.655 96.1186 477.252 96.5239C477.871 96.9079 478.543 97.0999 479.268 97.0999Z" fill="#335E3C"/>
<path d="M489.788 98.7959C489.511 98.7959 489.265 98.7105 489.052 98.5399C488.86 98.3692 488.764 98.1772 488.764 97.9639V84.4599C488.764 84.2039 488.86 84.0119 489.052 83.8839C489.265 83.7345 489.511 83.6599 489.788 83.6599C490.065 83.6599 490.3 83.7345 490.492 83.8839C490.684 84.0119 490.78 84.2039 490.78 84.4599V85.8999C491.121 85.2812 491.655 84.7265 492.38 84.2359C493.105 83.7239 494.001 83.4679 495.068 83.4679C496.092 83.4679 497.031 83.7452 497.884 84.2999C498.759 84.8332 499.452 85.5585 499.964 86.4759C500.476 87.3719 500.732 88.3745 500.732 89.4839V97.9639C500.732 98.2412 500.625 98.4545 500.412 98.6039C500.199 98.7319 499.953 98.7959 499.676 98.7959C499.441 98.7959 499.207 98.7319 498.972 98.6039C498.759 98.4545 498.652 98.2412 498.652 97.9639V89.4839C498.652 88.7799 498.471 88.1185 498.108 87.4999C497.745 86.8812 497.265 86.3799 496.668 85.9959C496.071 85.5906 495.409 85.3879 494.684 85.3879C494.044 85.3879 493.425 85.5585 492.828 85.8999C492.252 86.2199 491.772 86.6785 491.388 87.2759C491.025 87.8732 490.844 88.6092 490.844 89.4839V97.9639C490.844 98.1772 490.737 98.3692 490.524 98.5399C490.332 98.7105 490.087 98.7959 489.788 98.7959Z" fill="#335E3C"/>
</svg>
