<svg width="310" height="320" viewBox="0 0 310 320" fill="none" xmlns="http://www.w3.org/2000/svg">
<path d="M108.427 190.845C107.873 190.845 107.361 190.744 106.891 190.54C106.43 190.336 106.061 190.008 105.784 189.554C105.507 189.1 105.369 188.498 105.369 187.748V183.707C105.369 182.957 105.507 182.356 105.784 181.902C106.061 181.448 106.434 181.12 106.905 180.915C107.375 180.712 107.887 180.61 108.44 180.61C109.077 180.61 109.626 180.721 110.087 180.943C110.557 181.156 110.922 181.453 111.18 181.832C111.447 182.203 111.581 182.633 111.581 183.124C111.581 183.439 111.521 183.647 111.401 183.749C111.281 183.842 111.097 183.887 110.848 183.887C110.626 183.887 110.451 183.851 110.322 183.776C110.193 183.693 110.124 183.568 110.114 183.401C110.105 183.281 110.082 183.138 110.045 182.971C110.008 182.804 109.935 182.642 109.824 182.485C109.722 182.318 109.566 182.184 109.354 182.082C109.141 181.971 108.851 181.915 108.482 181.915C107.947 181.915 107.537 182.064 107.251 182.36C106.965 182.647 106.822 183.096 106.822 183.707V187.748C106.822 188.359 106.965 188.813 107.251 189.109C107.546 189.397 107.97 189.54 108.523 189.54C108.874 189.54 109.151 189.489 109.354 189.387C109.566 189.276 109.722 189.142 109.824 188.984C109.925 188.818 109.995 188.647 110.031 188.47C110.068 188.286 110.096 188.119 110.114 187.97C110.124 187.795 110.193 187.67 110.322 187.596C110.46 187.522 110.631 187.484 110.834 187.484C111.092 187.484 111.281 187.536 111.401 187.637C111.521 187.739 111.581 187.943 111.581 188.248C111.581 188.748 111.447 189.197 111.18 189.595C110.922 189.984 110.557 190.29 110.087 190.512C109.616 190.734 109.063 190.845 108.427 190.845ZM117.973 190.762C117.844 190.762 117.705 190.734 117.558 190.679C117.41 190.623 117.29 190.554 117.198 190.47C117.106 190.378 117.06 190.272 117.06 190.151C117.06 190.123 117.064 190.081 117.074 190.026L119.827 181.027C119.882 180.86 119.997 180.735 120.173 180.652C120.357 180.568 120.551 180.527 120.754 180.527C120.966 180.527 121.159 180.568 121.335 180.652C121.519 180.735 121.639 180.86 121.694 181.027L124.434 190.026C124.452 190.081 124.461 190.123 124.461 190.151C124.461 190.262 124.411 190.364 124.309 190.456C124.217 190.549 124.097 190.623 123.949 190.679C123.811 190.734 123.673 190.762 123.534 190.762C123.414 190.762 123.308 190.739 123.216 190.693C123.133 190.647 123.073 190.568 123.036 190.456L122.469 188.484H119.038L118.485 190.456C118.457 190.568 118.392 190.647 118.291 190.693C118.199 190.739 118.093 190.762 117.973 190.762ZM119.37 187.304H122.137L120.754 182.54L119.37 187.304ZM131.123 190.762C130.939 190.762 130.768 190.72 130.612 190.637C130.464 190.554 130.39 190.434 130.39 190.276V181.096C130.39 180.92 130.464 180.795 130.612 180.721C130.768 180.647 130.939 180.61 131.123 180.61C131.299 180.61 131.446 180.638 131.566 180.693C131.695 180.74 131.811 180.823 131.912 180.943C132.013 181.064 132.12 181.231 132.23 181.443L135.302 187.457V181.082C135.302 180.915 135.375 180.795 135.523 180.721C135.68 180.647 135.85 180.61 136.035 180.61C136.219 180.61 136.385 180.647 136.533 180.721C136.69 180.795 136.768 180.915 136.768 181.082V190.276C136.768 190.434 136.69 190.554 136.533 190.637C136.385 190.72 136.219 190.762 136.035 190.762C135.85 190.762 135.684 190.716 135.537 190.623C135.389 190.531 135.265 190.397 135.163 190.22L131.857 183.901V190.276C131.857 190.434 131.778 190.554 131.621 190.637C131.474 190.72 131.308 190.762 131.123 190.762ZM144.084 190.762C143.89 190.762 143.733 190.716 143.613 190.623C143.493 190.531 143.433 190.42 143.433 190.29V181.082C143.433 180.953 143.493 180.842 143.613 180.749C143.733 180.656 143.89 180.61 144.084 180.61H146.532C147.113 180.61 147.639 180.712 148.109 180.915C148.589 181.12 148.962 181.448 149.23 181.902C149.507 182.356 149.645 182.957 149.645 183.707V187.665C149.645 188.415 149.507 189.017 149.23 189.47C148.962 189.925 148.589 190.253 148.109 190.456C147.639 190.661 147.113 190.762 146.532 190.762H144.084ZM144.9 189.456H146.532C147.048 189.456 147.45 189.313 147.736 189.026C148.031 188.73 148.179 188.276 148.179 187.665V183.707C148.179 183.096 148.031 182.647 147.736 182.36C147.45 182.064 147.048 181.915 146.532 181.915H144.9V189.456ZM156.857 190.762C156.699 190.762 156.552 190.72 156.414 190.637C156.275 190.554 156.206 190.434 156.206 190.276V181.082C156.206 180.915 156.28 180.795 156.428 180.721C156.584 180.647 156.755 180.61 156.94 180.61C157.124 180.61 157.29 180.647 157.438 180.721C157.594 180.795 157.673 180.915 157.673 181.082V189.456H161.27C161.417 189.456 161.528 189.526 161.602 189.665C161.675 189.795 161.713 189.943 161.713 190.109C161.713 190.267 161.675 190.415 161.602 190.554C161.528 190.693 161.417 190.762 161.27 190.762H156.857ZM168.265 190.762C168.108 190.762 167.96 190.72 167.822 190.637C167.684 190.554 167.614 190.434 167.614 190.276V181.096C167.614 180.939 167.684 180.818 167.822 180.735C167.96 180.652 168.108 180.61 168.265 180.61H173.19C173.365 180.61 173.489 180.679 173.563 180.818C173.637 180.957 173.674 181.101 173.674 181.249C173.674 181.425 173.633 181.582 173.55 181.721C173.466 181.851 173.346 181.915 173.19 181.915H169.081V185.096H171.211C171.368 185.096 171.488 185.156 171.571 185.276C171.654 185.397 171.696 185.536 171.696 185.693C171.696 185.823 171.658 185.953 171.585 186.082C171.511 186.203 171.386 186.262 171.211 186.262H169.081V189.456H173.19C173.346 189.456 173.466 189.522 173.55 189.651C173.633 189.781 173.674 189.938 173.674 190.123C173.674 190.272 173.637 190.415 173.563 190.554C173.489 190.693 173.365 190.762 173.19 190.762H168.265ZM190.257 190.845C189.704 190.845 189.192 190.744 188.721 190.54C188.26 190.336 187.891 190.008 187.615 189.554C187.338 189.1 187.2 188.498 187.2 187.748V183.707C187.2 182.957 187.338 182.356 187.615 181.902C187.891 181.448 188.265 181.12 188.735 180.915C189.206 180.712 189.717 180.61 190.271 180.61C190.907 180.61 191.456 180.721 191.917 180.943C192.388 181.156 192.752 181.453 193.01 181.832C193.278 182.203 193.411 182.633 193.411 183.124C193.411 183.439 193.351 183.647 193.232 183.749C193.112 183.842 192.927 183.887 192.678 183.887C192.457 183.887 192.282 183.851 192.152 183.776C192.023 183.693 191.954 183.568 191.945 183.401C191.936 183.281 191.912 183.138 191.876 182.971C191.839 182.804 191.765 182.642 191.654 182.485C191.553 182.318 191.396 182.184 191.184 182.082C190.972 181.971 190.681 181.915 190.312 181.915C189.778 181.915 189.367 182.064 189.081 182.36C188.795 182.647 188.652 183.096 188.652 183.707V187.748C188.652 188.359 188.795 188.813 189.081 189.109C189.376 189.397 189.8 189.54 190.354 189.54C190.705 189.54 190.981 189.489 191.184 189.387C191.396 189.276 191.553 189.142 191.654 188.984C191.756 188.818 191.825 188.647 191.862 188.47C191.899 188.286 191.926 188.119 191.945 187.97C191.954 187.795 192.023 187.67 192.152 187.596C192.291 187.522 192.462 187.484 192.664 187.484C192.922 187.484 193.112 187.536 193.232 187.637C193.351 187.739 193.411 187.943 193.411 188.248C193.411 188.748 193.278 189.197 193.01 189.595C192.752 189.984 192.388 190.29 191.917 190.512C191.447 190.734 190.893 190.845 190.257 190.845ZM202.625 190.845C202.035 190.845 201.505 190.744 201.034 190.54C200.574 190.336 200.204 190.008 199.928 189.554C199.66 189.1 199.526 188.498 199.526 187.748V183.707C199.526 182.957 199.66 182.356 199.928 181.902C200.204 181.448 200.574 181.12 201.034 180.915C201.505 180.712 202.035 180.61 202.625 180.61C203.206 180.61 203.732 180.712 204.202 180.915C204.673 181.12 205.046 181.448 205.323 181.902C205.6 182.356 205.738 182.957 205.738 183.707V187.748C205.738 188.498 205.6 189.1 205.323 189.554C205.046 190.008 204.673 190.336 204.202 190.54C203.732 190.744 203.206 190.845 202.625 190.845ZM202.625 189.54C203.133 189.54 203.534 189.397 203.829 189.109C204.124 188.813 204.272 188.359 204.272 187.748V183.707C204.272 183.096 204.124 182.647 203.829 182.36C203.543 182.064 203.142 181.915 202.625 181.915C202.109 181.915 201.703 182.064 201.408 182.36C201.122 182.647 200.979 183.096 200.979 183.707V187.748C200.979 188.359 201.122 188.813 201.408 189.109C201.703 189.397 202.109 189.54 202.625 189.54ZM212.594 190.845C212.354 190.845 212.155 190.762 211.999 190.595C211.842 190.429 211.764 190.234 211.764 190.012C211.764 189.781 211.842 189.586 211.999 189.429C212.155 189.262 212.354 189.179 212.594 189.179C212.815 189.179 213.004 189.262 213.161 189.429C213.327 189.586 213.41 189.781 213.41 190.012C213.41 190.234 213.327 190.429 213.161 190.595C213.004 190.762 212.815 190.845 212.594 190.845Z" fill="#335E3C"/>
<path d="M71.7205 167.153C71.3815 167.153 71.0539 167.074 70.7375 166.915C70.4438 166.733 70.2969 166.473 70.2969 166.132V143.267C70.2969 142.927 70.4438 142.677 70.7375 142.519C71.0539 142.36 71.3815 142.281 71.7205 142.281C72.082 142.281 72.4097 142.36 72.7034 142.519C72.9972 142.677 73.1441 142.927 73.1441 143.267V153.067H82.3296V143.267C82.3296 142.927 82.4765 142.677 82.7703 142.519C83.0866 142.36 83.4143 142.281 83.7532 142.281C84.1148 142.281 84.4424 142.36 84.7362 142.519C85.03 142.677 85.1768 142.927 85.1768 143.267V166.132C85.1768 166.473 85.03 166.733 84.7362 166.915C84.4424 167.074 84.1148 167.153 83.7532 167.153C83.4143 167.153 83.0866 167.074 82.7703 166.915C82.4765 166.733 82.3296 166.473 82.3296 166.132V155.448H73.1441V166.132C73.1441 166.473 72.9972 166.733 72.7034 166.915C72.4097 167.074 72.082 167.153 71.7205 167.153ZM93.1432 167.153C92.8043 167.153 92.4767 167.074 92.1603 166.915C91.8665 166.733 91.7196 166.473 91.7196 166.132V143.267C91.7196 142.927 91.8665 142.677 92.1603 142.519C92.4767 142.36 92.8043 142.281 93.1432 142.281C93.5048 142.281 93.8325 142.36 94.1262 142.519C94.42 142.677 94.5668 142.927 94.5668 143.267V166.132C94.5668 166.473 94.42 166.733 94.1262 166.915C93.8325 167.074 93.5048 167.153 93.1432 167.153ZM108.144 167.357C106.766 167.357 105.523 167.119 104.415 166.643C103.331 166.144 102.461 165.35 101.806 164.261C101.173 163.172 100.856 161.732 100.856 159.94V149.698C100.856 147.906 101.173 146.466 101.806 145.377C102.461 144.288 103.331 143.505 104.415 143.029C105.523 142.53 106.743 142.281 108.076 142.281C109.568 142.281 110.856 142.541 111.94 143.063C113.047 143.562 113.906 144.265 114.516 145.173C115.149 146.08 115.465 147.146 115.465 148.371C115.465 148.915 115.341 149.29 115.092 149.494C114.844 149.675 114.494 149.766 114.042 149.766C113.658 149.766 113.33 149.698 113.059 149.562C112.788 149.403 112.641 149.142 112.618 148.779C112.528 147.985 112.324 147.305 112.008 146.738C111.692 146.148 111.217 145.694 110.584 145.377C109.952 145.037 109.138 144.866 108.144 144.866C106.743 144.866 105.647 145.263 104.856 146.057C104.088 146.829 103.704 148.042 103.704 149.698V159.94C103.704 161.596 104.088 162.82 104.856 163.614C105.647 164.386 106.743 164.771 108.144 164.771C109.545 164.771 110.641 164.386 111.432 163.614C112.223 162.82 112.618 161.596 112.618 159.94V156.469H108.585C108.268 156.469 108.02 156.344 107.839 156.095C107.681 155.845 107.602 155.573 107.602 155.278C107.602 154.983 107.681 154.711 107.839 154.462C108.02 154.212 108.268 154.087 108.585 154.087H114.482C114.799 154.087 115.036 154.189 115.194 154.394C115.375 154.598 115.465 154.847 115.465 155.142V159.94C115.465 161.732 115.138 163.172 114.482 164.261C113.85 165.35 112.98 166.144 111.872 166.643C110.765 167.119 109.522 167.357 108.144 167.357ZM122.782 167.153C122.443 167.153 122.115 167.074 121.799 166.915C121.505 166.733 121.358 166.473 121.358 166.132V143.267C121.358 142.927 121.505 142.677 121.799 142.519C122.115 142.36 122.443 142.281 122.782 142.281C123.143 142.281 123.471 142.36 123.765 142.519C124.058 142.677 124.205 142.927 124.205 143.267V153.067H133.391V143.267C133.391 142.927 133.538 142.677 133.831 142.519C134.148 142.36 134.475 142.281 134.814 142.281C135.176 142.281 135.504 142.36 135.797 142.519C136.091 142.677 136.238 142.927 136.238 143.267V166.132C136.238 166.473 136.091 166.733 135.797 166.915C135.504 167.074 135.176 167.153 134.814 167.153C134.475 167.153 134.148 167.074 133.831 166.915C133.538 166.733 133.391 166.473 133.391 166.132V155.448H124.205V166.132C124.205 166.473 124.058 166.733 123.765 166.915C123.471 167.074 123.143 167.153 122.782 167.153ZM152.549 167.153C152.233 167.153 151.939 167.074 151.668 166.915C151.397 166.733 151.261 166.473 151.261 166.132V143.267C151.261 142.927 151.408 142.677 151.702 142.519C152.018 142.36 152.346 142.281 152.685 142.281C153.047 142.281 153.374 142.36 153.668 142.519C153.962 142.677 154.108 142.927 154.108 143.267V164.567H163.396C163.712 164.567 163.938 164.703 164.074 164.975C164.232 165.225 164.311 165.52 164.311 165.86C164.311 166.178 164.232 166.473 164.074 166.745C163.938 167.017 163.712 167.153 163.396 167.153H152.549ZM168.676 167.153C168.45 167.153 168.189 167.108 167.896 167.017C167.625 166.903 167.399 166.756 167.218 166.575C167.06 166.393 166.981 166.189 166.981 165.962C166.981 165.871 166.992 165.781 167.015 165.69L173.963 143.063C174.053 142.723 174.268 142.473 174.607 142.315C174.946 142.156 175.307 142.076 175.692 142.076C176.099 142.076 176.472 142.167 176.811 142.349C177.149 142.507 177.364 142.746 177.455 143.063L184.369 165.69C184.414 165.781 184.437 165.86 184.437 165.928C184.437 166.155 184.335 166.359 184.132 166.541C183.951 166.722 183.725 166.869 183.454 166.983C183.183 167.096 182.923 167.153 182.674 167.153C182.425 167.153 182.211 167.108 182.03 167.017C181.849 166.903 181.725 166.733 181.658 166.507L180.132 161.437H171.218L169.76 166.507C169.693 166.733 169.557 166.903 169.354 167.017C169.172 167.108 168.947 167.153 168.676 167.153ZM171.896 159.089H179.488L175.692 146.296L171.896 159.089ZM190.499 167.153C190.16 167.153 189.832 167.074 189.516 166.915C189.222 166.733 189.076 166.473 189.076 166.132V143.267C189.076 142.927 189.222 142.677 189.516 142.519C189.832 142.36 190.16 142.281 190.499 142.281C190.86 142.281 191.188 142.36 191.482 142.519C191.776 142.677 191.923 142.927 191.923 143.267V154.53L201.041 142.689C201.244 142.417 201.526 142.281 201.888 142.281C202.136 142.281 202.385 142.36 202.634 142.519C202.882 142.655 203.085 142.836 203.244 143.063C203.402 143.267 203.481 143.494 203.481 143.744C203.481 143.834 203.469 143.936 203.447 144.05C203.424 144.163 203.368 144.265 203.278 144.356L196.363 153.033L204.396 165.282C204.509 165.44 204.566 165.61 204.566 165.792C204.566 166.041 204.486 166.28 204.329 166.507C204.17 166.711 203.967 166.881 203.718 167.017C203.469 167.153 203.198 167.221 202.905 167.221C202.724 167.221 202.543 167.176 202.363 167.085C202.181 166.994 202.024 166.847 201.888 166.643L194.465 155.448L191.923 158.613V166.132C191.923 166.473 191.776 166.733 191.482 166.915C191.188 167.074 190.86 167.153 190.499 167.153ZM210.065 167.153C209.748 167.153 209.455 167.074 209.184 166.915C208.913 166.733 208.777 166.473 208.777 166.132V143.301C208.777 142.961 208.913 142.712 209.184 142.553C209.455 142.371 209.748 142.281 210.065 142.281H222.132C222.493 142.281 222.742 142.417 222.877 142.689C223.035 142.961 223.115 143.245 223.115 143.539C223.115 143.88 223.024 144.186 222.844 144.458C222.685 144.73 222.448 144.866 222.132 144.866H211.624V153.509H216.912C217.228 153.509 217.465 153.634 217.624 153.883C217.804 154.133 217.895 154.416 217.895 154.734C217.895 155.006 217.815 155.267 217.658 155.516C217.522 155.766 217.273 155.891 216.912 155.891H211.624V164.567H222.132C222.448 164.567 222.685 164.703 222.844 164.975C223.024 165.225 223.115 165.531 223.115 165.894C223.115 166.189 223.035 166.473 222.877 166.745C222.742 167.017 222.493 167.153 222.132 167.153H210.065ZM233.781 167.425C232.334 167.425 231.069 167.21 229.984 166.779C228.9 166.325 228.063 165.803 227.476 165.214C226.888 164.601 226.595 164.057 226.595 163.58C226.595 163.354 226.651 163.127 226.764 162.9C226.9 162.65 227.058 162.446 227.239 162.287C227.442 162.106 227.646 162.015 227.849 162.015C228.12 162.015 228.38 162.151 228.629 162.424C228.9 162.696 229.227 163.025 229.611 163.41C230.018 163.773 230.538 164.091 231.171 164.363C231.803 164.635 232.628 164.771 233.645 164.771C234.594 164.771 235.419 164.624 236.119 164.329C236.819 164.011 237.362 163.546 237.746 162.934C238.153 162.299 238.356 161.505 238.356 160.552C238.356 159.577 238.153 158.783 237.746 158.17C237.34 157.558 236.797 157.048 236.119 156.639C235.464 156.231 234.741 155.868 233.95 155.55C233.182 155.233 232.391 154.915 231.577 154.598C230.786 154.257 230.063 153.849 229.408 153.373C228.752 152.874 228.222 152.239 227.815 151.467C227.408 150.696 227.205 149.721 227.205 148.541C227.205 147.294 227.43 146.262 227.883 145.445C228.335 144.628 228.934 143.982 229.679 143.505C230.425 143.029 231.227 142.7 232.086 142.519C232.967 142.315 233.826 142.213 234.662 142.213C235.272 142.213 235.916 142.258 236.594 142.349C237.272 142.439 237.916 142.575 238.526 142.757C239.136 142.938 239.633 143.177 240.017 143.471C240.401 143.744 240.594 144.073 240.594 144.458C240.594 144.64 240.548 144.855 240.458 145.105C240.367 145.331 240.232 145.547 240.051 145.751C239.87 145.933 239.644 146.023 239.373 146.023C239.124 146.023 238.819 145.921 238.458 145.717C238.096 145.49 237.611 145.275 237.001 145.071C236.413 144.844 235.633 144.73 234.662 144.73C233.848 144.73 233.08 144.844 232.357 145.071C231.656 145.297 231.091 145.672 230.662 146.193C230.256 146.715 230.052 147.407 230.052 148.269C230.052 149.086 230.256 149.755 230.662 150.276C231.069 150.798 231.6 151.229 232.255 151.569C232.91 151.91 233.633 152.227 234.425 152.522C235.215 152.794 236.006 153.123 236.797 153.509C237.588 153.872 238.311 154.325 238.967 154.87C239.644 155.414 240.187 156.129 240.594 157.013C241 157.875 241.204 158.964 241.204 160.28C241.204 161.913 240.876 163.263 240.221 164.329C239.588 165.372 238.718 166.155 237.611 166.677C236.503 167.176 235.226 167.425 233.781 167.425Z" fill="#335E3C"/>
<path fill-rule="evenodd" clip-rule="evenodd" d="M130.147 125.49L129.796 124.51C129.257 124.704 128.977 125.301 129.171 125.842C129.365 126.384 129.96 126.664 130.499 126.47C130.499 126.47 130.499 126.47 130.499 126.47L130.503 126.468L130.518 126.463L130.58 126.441C130.635 126.421 130.717 126.392 130.825 126.355C131.04 126.281 131.354 126.175 131.748 126.046C132.536 125.79 133.639 125.448 134.899 125.106C137.444 124.416 140.533 123.754 142.944 123.754C145.356 123.754 148.445 124.416 150.99 125.106C152.25 125.448 153.353 125.79 154.141 126.046C154.535 126.175 154.849 126.281 155.064 126.355C155.172 126.392 155.254 126.421 155.309 126.441L155.371 126.463L155.386 126.468L155.39 126.47L155.397 126.472L155.415 126.479L155.484 126.503C155.544 126.524 155.632 126.555 155.744 126.594C155.97 126.672 156.296 126.782 156.702 126.914C157.515 127.179 158.652 127.531 159.952 127.884C162.527 128.582 165.837 129.309 168.539 129.309C171.24 129.309 174.55 128.582 177.125 127.884C178.426 127.531 179.563 127.179 180.375 126.914C180.782 126.782 181.108 126.672 181.333 126.594C181.446 126.555 181.533 126.524 181.593 126.503L181.662 126.479L181.68 126.472L181.685 126.47L181.687 126.47C181.687 126.47 181.687 126.47 181.336 125.49L181.687 126.47C182.227 126.275 182.506 125.678 182.312 125.137C182.118 124.595 181.523 124.315 180.984 124.51C180.984 124.51 180.984 124.51 180.984 124.51L180.984 124.51L180.98 124.511L180.965 124.516L180.903 124.538C180.848 124.558 180.766 124.587 180.658 124.624C180.443 124.698 180.129 124.805 179.735 124.933C178.947 125.189 177.844 125.531 176.584 125.873C174.039 126.563 170.951 127.226 168.539 127.226C166.127 127.226 163.038 126.563 160.493 125.873C159.233 125.531 158.13 125.189 157.342 124.933C156.948 124.805 156.634 124.698 156.419 124.624C156.312 124.587 156.229 124.558 156.174 124.538L156.112 124.516L156.097 124.511L156.094 124.51L156.093 124.51L156.086 124.507L156.068 124.5L155.999 124.476C155.939 124.455 155.851 124.424 155.739 124.385C155.513 124.307 155.187 124.197 154.781 124.065C153.969 123.8 152.831 123.448 151.531 123.095C148.956 122.397 145.646 121.67 142.944 121.67C140.243 121.67 136.933 122.397 134.358 123.095C133.057 123.448 131.92 123.8 131.108 124.065C130.701 124.197 130.375 124.307 130.15 124.385C130.037 124.424 129.95 124.455 129.89 124.476L129.821 124.5L129.803 124.507L129.796 124.509C129.796 124.509 129.796 124.51 130.147 125.49Z" fill="#335E3C"/>
<path fill-rule="evenodd" clip-rule="evenodd" d="M153.91 110.542C153.775 110.407 153.557 110.407 153.422 110.542L153.422 110.542L140.565 123.448L139.098 121.975L151.954 109.069C151.954 109.069 151.954 109.069 151.954 109.069C152.9 108.12 154.432 108.12 155.378 109.069L173.423 127.183L171.955 128.656L153.911 110.542L153.91 110.542Z" fill="#335E3C"/>
<path fill-rule="evenodd" clip-rule="evenodd" d="M148.091 113.295C148.496 112.889 149.153 112.889 149.558 113.295L153.422 117.174L153.422 117.174C153.557 117.31 153.776 117.31 153.911 117.174L153.911 117.174L157.775 113.295C158.181 112.889 158.838 112.889 159.243 113.295C159.648 113.702 159.648 114.362 159.243 114.768L155.379 118.647C155.379 118.647 155.379 118.647 155.379 118.647C154.433 119.596 152.901 119.596 151.955 118.647C151.955 118.647 151.955 118.647 151.955 118.647L148.091 114.768C147.686 114.362 147.686 113.702 148.091 113.295Z" fill="#335E3C"/>
<path d="M2.26585 165.103L155.042 12.3264L307.818 165.103L155.042 317.879L2.26585 165.103Z" stroke="#335E3C" stroke-width="3"/>
<path d="M2.26585 154.897L155.042 2.12131L307.818 154.897L155.042 307.674L2.26585 154.897Z" stroke="#335E3C" stroke-width="3"/>
</svg>
